<svg width="32" height="32" viewBox="0 0 32 32" fill="none" xmlns="http://www.w3.org/2000/svg">
<path d="M12.0013 26.6665H8.0013C6.58681 26.6665 5.23026 26.1046 4.23007 25.1044C3.22987 24.1042 2.66797 22.7477 2.66797 21.3332V9.33317C2.66797 7.91868 3.22987 6.56213 4.23007 5.56193C5.23026 4.56174 6.58681 3.99984 8.0013 3.99984H22.668C24.0825 3.99984 25.439 4.56174 26.4392 5.56193C27.4394 6.56213 28.0013 7.91868 28.0013 9.33317V13.3332M10.668 2.6665V5.33317M20.0013 2.6665V5.33317M2.66797 10.6665H28.0013M24.668 20.8572L22.668 22.8572" stroke="#FFB049" stroke-width="2" stroke-linecap="round" stroke-linejoin="round"/>
<path d="M22.6667 29.3333C26.3486 29.3333 29.3333 26.3486 29.3333 22.6667C29.3333 18.9848 26.3486 16 22.6667 16C18.9848 16 16 18.9848 16 22.6667C16 26.3486 18.9848 29.3333 22.6667 29.3333Z" stroke="#FFB049" stroke-width="2" stroke-linecap="round" stroke-linejoin="round"/>
</svg>
