<svg width="32" height="32" viewBox="0 0 32 32" fill="none" xmlns="http://www.w3.org/2000/svg">
<path d="M22.668 13.3332H25.3346C28.0013 13.3332 29.3346 11.9998 29.3346 9.33317V6.6665C29.3346 3.99984 28.0013 2.6665 25.3346 2.6665H22.668C20.0013 2.6665 18.668 3.99984 18.668 6.6665V9.33317C18.668 11.9998 20.0013 13.3332 22.668 13.3332Z" stroke="#FFB049" stroke-width="2" stroke-miterlimit="10" stroke-linecap="round" stroke-linejoin="round"/>
<path d="M6.66797 29.3332H9.33464C12.0013 29.3332 13.3346 27.9998 13.3346 25.3332V22.6665C13.3346 19.9998 12.0013 18.6665 9.33464 18.6665H6.66797C4.0013 18.6665 2.66797 19.9998 2.66797 22.6665V25.3332C2.66797 27.9998 4.0013 29.3332 6.66797 29.3332Z" stroke="#FFB049" stroke-width="2" stroke-miterlimit="10" stroke-linecap="round" stroke-linejoin="round"/>
<path d="M8.0013 13.3332C10.9468 13.3332 13.3346 10.9454 13.3346 7.99984C13.3346 5.05432 10.9468 2.6665 8.0013 2.6665C5.05578 2.6665 2.66797 5.05432 2.66797 7.99984C2.66797 10.9454 5.05578 13.3332 8.0013 13.3332Z" stroke="#FFB049" stroke-width="2" stroke-miterlimit="10" stroke-linecap="round" stroke-linejoin="round"/>
<path d="M24.0013 29.3332C26.9468 29.3332 29.3346 26.9454 29.3346 23.9998C29.3346 21.0543 26.9468 18.6665 24.0013 18.6665C21.0558 18.6665 18.668 21.0543 18.668 23.9998C18.668 26.9454 21.0558 29.3332 24.0013 29.3332Z" stroke="#FFB049" stroke-width="2" stroke-miterlimit="10" stroke-linecap="round" stroke-linejoin="round"/>
</svg>
