<svg width="431" height="374" viewBox="0 0 431 374" fill="none" xmlns="http://www.w3.org/2000/svg">
<path d="M215.777 26.2201C215.715 26.2201 216.503 22.3523 216.575 22.0723C217.467 19.3037 220.827 14.4923 224.072 14.5027C224.613 14.5179 225.144 14.647 225.632 14.8815C226.119 15.116 226.552 15.4506 226.901 15.8636C227.25 16.2765 227.509 16.7584 227.659 17.278C227.81 17.7975 227.849 18.3429 227.774 18.8786C227.536 21.1598 225.483 23.1093 223.627 24.2292C221.449 25.5876 215.777 26.2201 215.777 26.2201Z" fill="#FFB049"/>
<path d="M209.483 0.213802C212.594 1.31296 214.067 6.97463 213.963 9.87806C213.963 10.1269 213.382 14.0258 213.33 14.0258H213.268C213.507 14.9176 213.766 15.8819 214.025 16.9396C214.481 18.889 214.979 21.0873 215.363 23.5345C215.808 26.156 216.099 28.8012 216.234 31.4567C216.399 34.4323 216.299 37.4167 215.933 40.3744C215.928 40.4088 215.928 40.4437 215.933 40.4781C216.338 39.6174 217.54 37.2325 217.644 37.0666C219.241 34.6401 223.741 30.8449 226.883 31.7471C227.399 31.9044 227.876 32.1687 228.283 32.5228C228.69 32.8769 229.017 33.3128 229.244 33.802C229.471 34.2912 229.593 34.8228 229.6 35.3621C229.608 35.9014 229.502 36.4362 229.289 36.9318C228.459 39.0678 225.971 40.4055 223.886 40.9965C221.533 41.6706 216.286 40.8825 215.871 40.8099C215.427 43.8119 214.783 46.7807 213.942 49.6964C213.458 51.397 212.933 53.0941 212.366 54.7878C212.729 54.0516 213.071 53.3983 213.123 53.3154C214.72 50.8786 219.231 47.0937 222.362 47.9959C222.878 48.1532 223.355 48.4175 223.762 48.7716C224.169 49.1257 224.496 49.5616 224.723 50.0508C224.95 50.5401 225.072 51.0716 225.079 51.6109C225.087 52.1502 224.981 52.685 224.768 53.1806C223.938 55.3167 221.45 56.6543 219.365 57.2454C217.281 57.8364 212.76 57.2453 211.578 57.0898L210.925 59.0393C209.888 62.1501 208.758 65.2609 207.814 68.3095C207.472 69.3464 207.171 70.4663 206.87 71.5447C207.202 70.8914 207.482 70.3419 207.534 70.2589C209.12 67.8325 213.631 64.0373 216.763 64.9394C217.278 65.0984 217.754 65.3636 218.16 65.7178C218.566 66.0719 218.893 66.5073 219.121 66.9958C219.349 67.4842 219.471 68.015 219.481 68.5538C219.491 69.0926 219.388 69.6276 219.179 70.1241C218.349 72.2706 215.85 73.5979 213.766 74.1993C211.682 74.8007 207.607 74.2719 206.196 74.0748C205.916 75.1844 205.647 76.2939 205.429 77.3827C205.294 78.1396 205.118 78.8447 205.025 79.6017L204.713 81.8311C204.568 83.2517 204.402 84.7138 204.299 86.1033C204.216 87.0677 204.154 87.9905 204.091 88.9238C204.423 87.8868 205.128 85.7404 205.128 85.5745C206.277 83.2931 207.99 81.344 210.106 79.9128C210.218 79.6485 210.361 79.398 210.531 79.1662C210.824 78.7132 211.21 78.3272 211.663 78.0335C212.116 77.7397 212.626 77.5449 213.159 77.4617C213.693 77.3786 214.238 77.4089 214.758 77.5507C215.279 77.6925 215.764 77.9427 216.182 78.2848C218.65 80.4105 218.028 86.2381 216.898 88.9134C216.835 89.0689 215.912 90.6969 215.321 91.7235C215.767 91.1739 216.182 90.6347 216.649 90.0852C217.551 88.9756 218.484 87.8972 219.479 86.7358L221.004 85.0871C221.502 84.5272 222.103 84.0502 222.653 83.4384C223.949 82.1837 225.328 80.9705 226.748 79.778C225.784 78.9899 222.383 76.128 221.408 74.1785C220.433 72.2291 219.739 69.5019 220.755 67.4384C220.978 66.9463 221.303 66.5067 221.707 66.148C222.111 65.7893 222.587 65.5196 223.102 65.3563C223.617 65.1931 224.161 65.1399 224.698 65.2003C225.235 65.2606 225.753 65.4332 226.22 65.7068C228.967 67.4384 229.247 73.2971 228.532 76.0761C228.532 76.2524 227.744 78.2122 227.319 79.2803C228.179 78.5751 229.03 77.87 229.921 77.2064C232.493 75.2258 235.158 73.2868 237.802 71.3477L240.218 69.5642C239.876 69.2842 235.77 65.966 234.671 63.7781C233.706 61.839 233.001 59.1015 234.017 57.0483C234.24 56.5551 234.563 56.1143 234.967 55.7547C235.372 55.3951 235.847 55.1247 236.363 54.9613C236.878 54.7979 237.423 54.7451 237.96 54.8063C238.498 54.8675 239.016 55.0414 239.482 55.3166C242.24 57.038 242.51 62.8967 241.794 65.686C241.743 65.8934 240.674 68.7139 240.374 69.419C242.137 68.1021 243.889 66.7748 245.558 65.3853C247.83 63.5336 249.978 61.5349 251.987 59.4022C251.832 59.2674 247.529 55.8248 246.409 53.5953C245.434 51.6563 244.739 48.9084 245.755 46.8552C245.978 46.3635 246.301 45.924 246.705 45.5654C247.108 45.2067 247.582 44.937 248.097 44.7737C248.611 44.6104 249.154 44.5571 249.69 44.6174C250.227 44.6777 250.744 44.8501 251.21 45.1236C253.968 46.8552 254.248 52.7139 253.533 55.4929C253.533 55.6796 252.672 57.826 252.267 58.8422L252.423 58.9459C254.387 56.7414 256.154 54.368 257.701 51.8533C258.572 50.4742 259.319 49.1158 260.024 47.7781C259.153 47.2182 255.223 44.6155 253.989 42.7179C252.755 40.8203 251.822 38.2487 252.599 36.0918C252.766 35.5777 253.039 35.1044 253.401 34.7029C253.763 34.3014 254.205 33.9806 254.699 33.7615C255.193 33.5423 255.728 33.4297 256.268 33.431C256.809 33.4324 257.343 33.5475 257.836 33.7691C260.77 35.1897 261.683 41.0276 261.278 43.8585C261.278 44.014 260.864 45.5798 260.563 46.7101C260.864 46.0983 261.195 45.4761 261.475 44.8851C262.512 42.6764 263.394 40.5818 264.12 38.6634C264.534 37.6265 264.877 36.6414 265.157 35.7289C264.586 34.692 262.367 30.7101 262.149 28.4703C261.932 26.2306 262.284 23.5138 263.974 21.9584C264.359 21.5796 264.82 21.2861 265.325 21.097C265.831 20.9079 266.371 20.8273 266.91 20.8606C267.449 20.8938 267.975 21.0401 268.453 21.29C268.932 21.5399 269.353 21.8878 269.688 22.3109C271.637 24.9136 269.781 30.482 268.101 32.8462C267.956 33.0536 265.312 35.957 265.281 35.957V35.8948C264.991 36.7762 264.68 37.7198 264.306 38.736C263.622 40.6232 262.823 42.7386 261.797 44.9576C260.712 47.3857 259.49 49.7503 258.137 52.0399C256.627 54.6082 254.892 57.0372 252.952 59.2985L252.879 59.3814C253.688 58.8837 255.99 57.5564 256.187 57.4735C258.862 56.3328 264.69 55.6899 266.826 58.1371C267.17 58.5536 267.422 59.0378 267.566 59.5582C267.711 60.0786 267.744 60.6236 267.664 61.1576C267.583 61.6917 267.392 62.2029 267.101 62.6579C266.81 63.113 266.427 63.5017 265.976 63.7988C264.099 65.1261 261.289 64.8357 259.215 64.2136C256.882 63.467 252.993 59.9207 252.641 59.6303C250.615 61.8898 248.44 64.01 246.129 65.9764C244.791 67.1274 243.402 68.2472 241.981 69.3568C242.697 68.942 243.339 68.5791 243.433 68.5376C246.098 67.397 251.925 66.7541 254.061 69.2012C254.407 69.617 254.66 70.1011 254.806 70.6218C254.951 71.1425 254.984 71.6879 254.904 72.2225C254.824 72.757 254.632 73.2686 254.34 73.7236C254.048 74.1787 253.663 74.5669 253.211 74.8629C251.345 76.1902 248.524 75.8998 246.461 75.2777C244.397 74.6555 240.944 71.6484 240.052 70.85C239.503 71.2647 239.015 71.6899 238.424 72.115C235.822 74.1059 233.24 76.0865 230.699 78.1189C229.818 78.824 228.978 79.5602 228.128 80.2965L229.393 79.5913C232.058 78.4507 237.885 77.7974 240.021 80.2446C240.365 80.6619 240.618 81.147 240.762 81.6682C240.906 82.1894 240.94 82.7352 240.859 83.27C240.779 83.8049 240.588 84.3169 240.297 84.7729C240.006 85.2289 239.622 85.6185 239.171 85.9167C237.304 87.2439 234.484 86.9536 232.42 86.3211C230.357 85.6885 227.236 82.9821 226.199 82.0385C225.359 82.8162 224.509 83.5939 223.731 84.382C223.202 84.9316 222.694 85.4189 222.176 86.01L220.682 87.6898C219.78 88.7993 218.837 89.9296 217.976 91.0288C217.374 91.7857 216.815 92.522 216.255 93.2686C217.115 92.5427 218.857 91.1947 219.013 91.0702C221.47 89.5356 227.142 87.9594 229.621 90.1163C230.022 90.477 230.344 90.9183 230.563 91.4114C230.783 91.9045 230.897 92.4383 230.897 92.9782C230.897 93.5181 230.783 94.0519 230.563 94.545C230.344 95.0381 230.022 95.4794 229.621 95.8402C227.962 97.437 225.141 97.603 223.005 97.2711C220.641 96.8978 216.369 94.1603 215.84 93.7663C214.907 95.0002 214.015 96.1927 213.185 97.3437C210.313 101.315 208.073 104.737 206.539 107.143L206.383 107.392L204.392 106.427L204.703 105.95C206.31 103.545 208.654 100.143 211.64 96.2031C212.584 94.9484 213.61 93.6315 214.678 92.2938C213.568 91.0802 212.529 89.8026 211.568 88.4675C209.276 89.3697 204.527 89.4008 203.905 89.4008C203.811 90.9354 203.728 92.439 203.666 93.8492C203.459 98.7436 203.48 102.829 203.531 105.691V106.023L201.343 104.986C201.343 102.145 201.458 98.3081 201.748 93.7663C201.841 92.2109 201.976 90.5414 202.132 88.8305C201.52 88.6749 196.574 87.4098 194.707 85.9167C193.017 84.5583 191.233 82.3703 191.296 80.0683C191.291 79.5283 191.401 78.9934 191.617 78.4985C191.833 78.0037 192.151 77.5598 192.55 77.196C192.95 76.8321 193.421 76.5564 193.933 76.3867C194.446 76.2169 194.989 76.1571 195.526 76.2109C198.751 76.6257 201.458 81.8311 201.986 84.6827C201.986 84.859 202.152 86.7566 202.214 87.8972C202.287 87.2025 202.339 86.5181 202.422 85.8233C202.557 84.4027 202.743 82.9925 202.94 81.4682C203.054 80.732 203.179 79.9958 203.293 79.2492C203.407 78.5026 203.604 77.7352 203.76 76.9679C204.154 75.2051 204.631 73.4319 205.159 71.6588C203.915 71.5343 199.508 71.0159 197.621 69.9271C195.734 68.8383 193.639 66.9511 193.359 64.6698C193.272 64.1362 193.299 63.5903 193.438 63.0678C193.576 62.5452 193.823 62.0576 194.162 61.6369C194.502 61.2162 194.926 60.8718 195.408 60.6261C195.889 60.3804 196.417 60.239 196.957 60.211C200.203 60.1384 203.666 64.8668 204.62 67.6147C204.682 67.7806 205.149 69.8234 205.388 70.9537C205.709 69.9167 206.02 68.8279 206.424 67.7599C207.461 64.6491 208.633 61.6109 209.774 58.5312C210.126 57.5875 210.458 56.6439 210.811 55.7003C210.365 55.7003 205.108 55.1507 202.992 53.9375C201.115 52.9006 199.021 50.9615 198.73 48.6802C198.645 48.1469 198.673 47.6016 198.812 47.0797C198.951 46.5578 199.199 46.0709 199.538 45.6506C199.877 45.2303 200.301 44.8859 200.781 44.6397C201.262 44.3935 201.789 44.251 202.329 44.2214C205.585 44.1488 209.048 48.8773 210.002 51.6252C210.074 51.8325 210.738 54.736 210.873 55.524C211.619 53.4502 212.356 51.3763 212.947 49.3024C213.824 46.5026 214.516 43.6484 215.021 40.758C214.813 40.758 209.328 40.2396 207.161 38.9953C205.273 37.9583 203.179 36.0192 202.899 33.738C202.812 33.2049 202.839 32.6595 202.977 32.1375C203.116 31.6155 203.363 31.1286 203.703 30.7087C204.042 30.2888 204.467 29.9453 204.948 29.7008C205.43 29.4562 205.958 29.3161 206.497 29.2895C209.743 29.2066 213.206 33.935 214.16 36.6829C214.222 36.8592 214.741 39.099 214.958 40.1774H215.135C215.563 37.2566 215.73 34.3034 215.632 31.353C215.632 29.725 215.477 28.18 215.321 26.6764C214.284 26.6764 209.577 26.6764 207.503 25.7743C205.429 24.8722 203.22 23.2545 202.681 21.0251C202.537 20.5029 202.505 19.9562 202.587 19.4207C202.669 18.8853 202.864 18.3732 203.157 17.918C203.451 17.4629 203.838 17.0748 204.292 16.7794C204.746 16.4839 205.257 16.2876 205.792 16.2034C209.017 15.7575 212.978 20.0919 214.233 22.705C214.295 22.8501 214.834 24.3744 215.197 25.4943C215.124 24.8099 215.052 24.1048 214.958 23.4205C214.637 20.9837 214.181 18.775 213.766 16.8152C213.517 15.7056 213.279 14.7413 213.04 13.7769C212.003 13.2585 207.938 11.1224 206.549 9.40107C205.159 7.67975 203.915 5.18073 204.475 2.96169C204.599 2.43766 204.831 1.94549 205.158 1.51701C205.484 1.08854 205.896 0.733301 206.368 0.474287C206.84 0.215272 207.362 0.058251 207.898 0.0133801C208.435 -0.0314909 208.975 0.0367894 209.483 0.213802Z" fill="#FFB049"/>
<path d="M268.256 50.2876C265.716 50.1839 260.635 47.5812 260.635 47.5812C260.635 47.5812 263.362 44.7504 263.559 44.5948C265.83 42.7906 271.284 40.6234 273.991 42.4276C274.433 42.7376 274.805 43.1374 275.082 43.6011C275.359 44.0647 275.535 44.5816 275.599 45.118C275.663 45.6544 275.612 46.1982 275.451 46.7138C275.29 47.2294 275.022 47.7052 274.665 48.1101C273.213 49.8832 270.423 50.3809 268.256 50.2876Z" fill="#FFB049"/>
<g opacity="0.5">
<path d="M215.778 26.2201C215.716 26.2201 216.504 22.3523 216.576 22.0723C217.468 19.3037 220.828 14.4923 224.073 14.5027C224.614 14.5179 225.145 14.647 225.633 14.8815C226.12 15.116 226.553 15.4506 226.902 15.8636C227.251 16.2765 227.51 16.7584 227.66 17.278C227.811 17.7975 227.85 18.3429 227.775 18.8786C227.537 21.1598 225.484 23.1093 223.628 24.2292C221.45 25.5876 215.778 26.2201 215.778 26.2201Z" fill="white"/>
<path d="M209.483 0.213802C212.594 1.31296 214.067 6.97463 213.963 9.87806C213.963 10.1269 213.382 14.0258 213.33 14.0258H213.268C213.507 14.9176 213.766 15.8819 214.025 16.9396C214.481 18.889 214.979 21.0873 215.363 23.5345C215.808 26.156 216.099 28.8012 216.234 31.4567C216.399 34.4323 216.299 37.4167 215.933 40.3744C215.928 40.4088 215.928 40.4437 215.933 40.4781C216.338 39.6174 217.54 37.2325 217.644 37.0666C219.241 34.6401 223.741 30.8449 226.883 31.7471C227.399 31.9044 227.876 32.1687 228.283 32.5228C228.69 32.8769 229.017 33.3128 229.244 33.802C229.471 34.2912 229.593 34.8228 229.6 35.3621C229.608 35.9014 229.502 36.4362 229.289 36.9318C228.459 39.0678 225.971 40.4055 223.886 40.9965C221.533 41.6706 216.286 40.8825 215.871 40.8099C215.427 43.8119 214.783 46.7807 213.942 49.6964C213.458 51.397 212.933 53.0941 212.366 54.7878C212.729 54.0516 213.071 53.3983 213.123 53.3154C214.72 50.8786 219.231 47.0937 222.362 47.9959C222.878 48.1532 223.355 48.4175 223.762 48.7716C224.169 49.1257 224.496 49.5616 224.723 50.0508C224.95 50.5401 225.072 51.0716 225.079 51.6109C225.087 52.1502 224.981 52.685 224.768 53.1806C223.938 55.3167 221.45 56.6543 219.365 57.2454C217.281 57.8364 212.76 57.2453 211.578 57.0898L210.925 59.0393C209.888 62.1501 208.758 65.2609 207.814 68.3095C207.472 69.3464 207.171 70.4663 206.87 71.5447C207.202 70.8914 207.482 70.3419 207.534 70.2589C209.12 67.8325 213.631 64.0373 216.763 64.9394C217.278 65.0984 217.754 65.3636 218.16 65.7178C218.566 66.0719 218.893 66.5073 219.121 66.9958C219.349 67.4842 219.471 68.015 219.481 68.5538C219.491 69.0926 219.388 69.6276 219.179 70.1241C218.349 72.2706 215.85 73.5979 213.766 74.1993C211.682 74.8007 207.607 74.2719 206.196 74.0748C205.916 75.1844 205.647 76.2939 205.429 77.3827C205.294 78.1396 205.118 78.8447 205.025 79.6017L204.713 81.8311C204.568 83.2517 204.402 84.7138 204.299 86.1033C204.216 87.0677 204.154 87.9905 204.091 88.9238C204.423 87.8868 205.128 85.7404 205.128 85.5745C206.277 83.2931 207.99 81.344 210.106 79.9128C210.218 79.6485 210.361 79.398 210.531 79.1662C210.824 78.7132 211.21 78.3272 211.663 78.0335C212.116 77.7397 212.626 77.5449 213.159 77.4617C213.693 77.3786 214.238 77.4089 214.758 77.5507C215.279 77.6925 215.764 77.9427 216.182 78.2848C218.65 80.4105 218.028 86.2381 216.898 88.9134C216.835 89.0689 215.912 90.6969 215.321 91.7235C215.767 91.1739 216.182 90.6347 216.649 90.0852C217.551 88.9756 218.484 87.8972 219.479 86.7358L221.004 85.0871C221.502 84.5272 222.103 84.0502 222.653 83.4384C223.949 82.1837 225.328 80.9705 226.748 79.778C225.784 78.9899 222.383 76.128 221.408 74.1785C220.433 72.2291 219.739 69.5019 220.755 67.4384C220.978 66.9463 221.303 66.5067 221.707 66.148C222.111 65.7893 222.587 65.5196 223.102 65.3563C223.617 65.1931 224.161 65.1399 224.698 65.2003C225.235 65.2606 225.753 65.4332 226.22 65.7068C228.967 67.4384 229.247 73.2971 228.532 76.0761C228.532 76.2524 227.744 78.2122 227.319 79.2803C228.179 78.5751 229.03 77.87 229.921 77.2064C232.493 75.2258 235.158 73.2868 237.802 71.3477L240.218 69.5642C239.876 69.2842 235.77 65.966 234.671 63.7781C233.706 61.839 233.001 59.1015 234.017 57.0483C234.24 56.5551 234.563 56.1143 234.967 55.7547C235.372 55.3951 235.847 55.1247 236.363 54.9613C236.878 54.7979 237.423 54.7451 237.96 54.8063C238.498 54.8675 239.016 55.0414 239.482 55.3166C242.24 57.038 242.51 62.8967 241.794 65.686C241.743 65.8934 240.674 68.7139 240.374 69.419C242.137 68.1021 243.889 66.7748 245.558 65.3853C247.83 63.5336 249.978 61.5349 251.987 59.4022C251.832 59.2674 247.529 55.8248 246.409 53.5953C245.434 51.6563 244.739 48.9084 245.755 46.8552C245.978 46.3635 246.301 45.924 246.705 45.5654C247.108 45.2067 247.582 44.937 248.097 44.7737C248.611 44.6104 249.154 44.5571 249.69 44.6174C250.227 44.6777 250.744 44.8501 251.21 45.1236C253.968 46.8552 254.248 52.7139 253.533 55.4929C253.533 55.6796 252.672 57.826 252.267 58.8422L252.423 58.9459C254.387 56.7414 256.154 54.368 257.701 51.8533C258.572 50.4742 259.319 49.1158 260.024 47.7781C259.153 47.2182 255.223 44.6155 253.989 42.7179C252.755 40.8203 251.822 38.2487 252.599 36.0918C252.766 35.5777 253.039 35.1044 253.401 34.7029C253.763 34.3014 254.205 33.9806 254.699 33.7615C255.193 33.5423 255.728 33.4297 256.268 33.431C256.809 33.4324 257.343 33.5475 257.836 33.7691C260.77 35.1897 261.683 41.0276 261.278 43.8585C261.278 44.014 260.864 45.5798 260.563 46.7101C260.864 46.0983 261.195 45.4761 261.475 44.8851C262.512 42.6764 263.394 40.5818 264.12 38.6634C264.534 37.6265 264.877 36.6414 265.157 35.7289C264.586 34.692 262.367 30.7101 262.149 28.4703C261.932 26.2306 262.284 23.5138 263.974 21.9584C264.359 21.5796 264.82 21.2861 265.325 21.097C265.831 20.9079 266.371 20.8273 266.91 20.8606C267.449 20.8938 267.975 21.0401 268.453 21.29C268.932 21.5399 269.353 21.8878 269.688 22.3109C271.637 24.9136 269.781 30.482 268.101 32.8462C267.956 33.0536 265.312 35.957 265.281 35.957V35.8948C264.991 36.7762 264.68 37.7198 264.306 38.736C263.622 40.6232 262.823 42.7386 261.797 44.9576C260.712 47.3857 259.49 49.7503 258.137 52.0399C256.627 54.6082 254.892 57.0372 252.952 59.2985L252.879 59.3814C253.688 58.8837 255.99 57.5564 256.187 57.4735C258.862 56.3328 264.69 55.6899 266.826 58.1371C267.17 58.5536 267.422 59.0378 267.566 59.5582C267.711 60.0786 267.744 60.6236 267.664 61.1576C267.583 61.6917 267.392 62.2029 267.101 62.6579C266.81 63.113 266.427 63.5017 265.976 63.7988C264.099 65.1261 261.289 64.8357 259.215 64.2136C256.882 63.467 252.993 59.9207 252.641 59.6303C250.615 61.8898 248.44 64.01 246.129 65.9764C244.791 67.1274 243.402 68.2472 241.981 69.3568C242.697 68.942 243.339 68.5791 243.433 68.5376C246.098 67.397 251.925 66.7541 254.061 69.2012C254.407 69.617 254.66 70.1011 254.806 70.6218C254.951 71.1425 254.984 71.6879 254.904 72.2225C254.824 72.757 254.632 73.2686 254.34 73.7236C254.048 74.1787 253.663 74.5669 253.211 74.8629C251.345 76.1902 248.524 75.8998 246.461 75.2777C244.397 74.6555 240.944 71.6484 240.052 70.85C239.503 71.2647 239.015 71.6899 238.424 72.115C235.822 74.1059 233.24 76.0865 230.699 78.1189C229.818 78.824 228.978 79.5602 228.128 80.2965L229.393 79.5913C232.058 78.4507 237.885 77.7974 240.021 80.2446C240.365 80.6619 240.618 81.147 240.762 81.6682C240.906 82.1894 240.94 82.7352 240.859 83.27C240.779 83.8049 240.588 84.3169 240.297 84.7729C240.006 85.2289 239.622 85.6185 239.171 85.9167C237.304 87.2439 234.484 86.9536 232.42 86.3211C230.357 85.6885 227.236 82.9821 226.199 82.0385C225.359 82.8162 224.509 83.5939 223.731 84.382C223.202 84.9316 222.694 85.4189 222.176 86.01L220.682 87.6898C219.78 88.7993 218.837 89.9296 217.976 91.0288C217.374 91.7857 216.815 92.522 216.255 93.2686C217.115 92.5427 218.857 91.1947 219.013 91.0702C221.47 89.5356 227.142 87.9594 229.621 90.1163C230.022 90.477 230.344 90.9183 230.563 91.4114C230.783 91.9045 230.897 92.4383 230.897 92.9782C230.897 93.5181 230.783 94.0519 230.563 94.545C230.344 95.0381 230.022 95.4794 229.621 95.8402C227.962 97.437 225.141 97.603 223.005 97.2711C220.641 96.8978 216.369 94.1603 215.84 93.7663C214.907 95.0002 214.015 96.1927 213.185 97.3437C210.313 101.315 208.073 104.737 206.539 107.143L206.383 107.392L204.392 106.427L204.703 105.95C206.31 103.545 208.654 100.143 211.64 96.2031C212.584 94.9484 213.61 93.6315 214.678 92.2938C213.568 91.0802 212.529 89.8026 211.568 88.4675C209.276 89.3697 204.527 89.4008 203.905 89.4008C203.811 90.9354 203.728 92.439 203.666 93.8492C203.459 98.7436 203.48 102.829 203.531 105.691V106.023L201.343 104.986C201.343 102.145 201.458 98.3081 201.748 93.7663C201.841 92.2109 201.976 90.5414 202.132 88.8305C201.52 88.6749 196.574 87.4098 194.707 85.9167C193.017 84.5583 191.233 82.3703 191.296 80.0683C191.291 79.5283 191.401 78.9934 191.617 78.4985C191.833 78.0037 192.151 77.5598 192.55 77.196C192.95 76.8321 193.421 76.5564 193.933 76.3867C194.446 76.2169 194.989 76.1571 195.526 76.2109C198.751 76.6257 201.458 81.8311 201.986 84.6827C201.986 84.859 202.152 86.7566 202.214 87.8972C202.287 87.2025 202.339 86.5181 202.422 85.8233C202.557 84.4027 202.743 82.9925 202.94 81.4682C203.054 80.732 203.179 79.9958 203.293 79.2492C203.407 78.5026 203.604 77.7352 203.76 76.9679C204.154 75.2051 204.631 73.4319 205.159 71.6588C203.915 71.5343 199.508 71.0159 197.621 69.9271C195.734 68.8383 193.639 66.9511 193.359 64.6698C193.272 64.1362 193.299 63.5903 193.438 63.0678C193.576 62.5452 193.823 62.0576 194.162 61.6369C194.502 61.2162 194.926 60.8718 195.408 60.6261C195.889 60.3804 196.417 60.239 196.957 60.211C200.203 60.1384 203.666 64.8668 204.62 67.6147C204.682 67.7806 205.149 69.8234 205.388 70.9537C205.709 69.9167 206.02 68.8279 206.424 67.7599C207.461 64.6491 208.633 61.6109 209.774 58.5312C210.126 57.5875 210.458 56.6439 210.811 55.7003C210.365 55.7003 205.108 55.1507 202.992 53.9375C201.115 52.9006 199.021 50.9615 198.73 48.6802C198.645 48.1469 198.673 47.6016 198.812 47.0797C198.951 46.5578 199.199 46.0709 199.538 45.6506C199.877 45.2303 200.301 44.8859 200.781 44.6397C201.262 44.3935 201.789 44.251 202.329 44.2214C205.585 44.1488 209.048 48.8773 210.002 51.6252C210.074 51.8325 210.738 54.736 210.873 55.524C211.619 53.4502 212.356 51.3763 212.947 49.3024C213.824 46.5026 214.516 43.6484 215.021 40.758C214.813 40.758 209.328 40.2396 207.161 38.9953C205.273 37.9583 203.179 36.0192 202.899 33.738C202.812 33.2049 202.839 32.6595 202.977 32.1375C203.116 31.6155 203.363 31.1286 203.703 30.7087C204.042 30.2888 204.467 29.9453 204.948 29.7008C205.43 29.4562 205.958 29.3161 206.497 29.2895C209.743 29.2066 213.206 33.935 214.16 36.6829C214.222 36.8592 214.741 39.099 214.958 40.1774H215.135C215.563 37.2566 215.73 34.3034 215.632 31.353C215.632 29.725 215.477 28.18 215.321 26.6764C214.284 26.6764 209.577 26.6764 207.503 25.7743C205.429 24.8722 203.22 23.2545 202.681 21.0251C202.537 20.5029 202.505 19.9562 202.587 19.4207C202.669 18.8853 202.864 18.3732 203.157 17.918C203.451 17.4629 203.838 17.0748 204.292 16.7794C204.746 16.4839 205.257 16.2876 205.792 16.2034C209.017 15.7575 212.978 20.0919 214.233 22.705C214.295 22.8501 214.834 24.3744 215.197 25.4943C215.124 24.8099 215.052 24.1048 214.958 23.4205C214.637 20.9837 214.181 18.775 213.766 16.8152C213.517 15.7056 213.279 14.7413 213.04 13.7769C212.003 13.2585 207.938 11.1224 206.549 9.40107C205.159 7.67975 203.915 5.18073 204.475 2.96169C204.599 2.43766 204.831 1.94549 205.158 1.51701C205.484 1.08854 205.896 0.733301 206.368 0.474287C206.84 0.215272 207.362 0.058251 207.898 0.0133801C208.435 -0.0314909 208.975 0.0367894 209.483 0.213802Z" fill="white"/>
<path d="M268.257 50.2876C265.717 50.1839 260.636 47.5812 260.636 47.5812C260.636 47.5812 263.363 44.7504 263.56 44.5948C265.831 42.7906 271.285 40.6234 273.991 42.4276C274.434 42.7376 274.806 43.1374 275.083 43.6011C275.36 44.0647 275.536 44.5816 275.6 45.118C275.664 45.6544 275.613 46.1982 275.452 46.7138C275.291 47.2294 275.023 47.7052 274.666 48.1101C273.214 49.8832 270.424 50.3809 268.257 50.2876Z" fill="white"/>
</g>
<path d="M238.59 113.914C238.59 113.914 223.171 76.7501 214.543 78.3677C205.916 79.9853 229.34 137.618 229.34 137.618C229.34 137.618 202.214 86.4455 183.715 86.4455C165.216 86.4455 190.497 143 213.983 161.852C213.983 161.852 176.985 121.992 155.407 130.609C133.828 139.226 198.512 179.604 198.512 179.604C198.512 179.604 160.902 167.772 165.247 176.939C169.592 186.106 181.278 187.702 181.278 187.702L191.171 189.859H245.091L253.387 186.634C253.387 186.634 287.917 169.39 278.667 162.391C269.418 155.391 249.073 170.468 249.073 170.468C249.073 170.468 284.215 131.687 277.433 117.149C270.652 102.611 240.436 143.539 240.436 143.539C240.436 143.539 265.104 91.288 260.137 82.1318C255.17 72.9757 238.59 113.914 238.59 113.914Z" fill="#FFB049"/>
<path opacity="0.4" d="M238.59 113.914C238.59 113.914 223.171 76.7501 214.543 78.3677C205.916 79.9853 229.34 137.618 229.34 137.618C229.34 137.618 202.214 86.4455 183.715 86.4455C165.216 86.4455 190.497 143 213.983 161.852C213.983 161.852 176.985 121.992 155.407 130.609C133.828 139.226 198.512 179.604 198.512 179.604C198.512 179.604 160.902 167.772 165.247 176.939C169.592 186.106 181.278 187.702 181.278 187.702L197.392 189.859H240.944L253.387 186.634C253.387 186.634 287.917 169.39 278.667 162.391C269.418 155.391 249.073 170.468 249.073 170.468C249.073 170.468 284.215 131.687 277.433 117.149C270.652 102.611 240.436 143.539 240.436 143.539C240.436 143.539 265.104 91.288 260.137 82.1318C255.17 72.9757 238.59 113.914 238.59 113.914Z" fill="white"/>
<path d="M243.526 115.874C229.963 155.951 229.963 184.312 229.963 184.312C229.963 184.312 245.994 184.934 262.637 172.594" stroke="#263238" stroke-linecap="round" stroke-linejoin="round"/>
<path d="M236.796 137.452C233.997 125.472 230.285 113.724 225.69 102.311" stroke="#263238" stroke-linecap="round" stroke-linejoin="round"/>
<path d="M196.666 114.018L231.186 165.201C231.186 165.201 254.62 145.499 262.636 134.373" stroke="#263238" stroke-linecap="round" stroke-linejoin="round"/>
<path d="M230.574 177.53C230.574 177.53 194.198 160.265 179.401 150.404" stroke="#263238" stroke-linecap="round" stroke-linejoin="round"/>
<path d="M253.777 30.9382H246.28V343.357H253.777V30.9382Z" fill="#C2C2C2" stroke="#ABABAB" stroke-linecap="round" stroke-linejoin="round"/>
<path d="M118.913 30.9382H111.416V343.357H118.913V30.9382Z" fill="#C2C2C2" stroke="#ABABAB" stroke-linecap="round" stroke-linejoin="round"/>
<path d="M186.345 30.9382H178.848V343.357H186.345V30.9382Z" fill="#C2C2C2" stroke="#ABABAB" stroke-linecap="round" stroke-linejoin="round"/>
<path d="M321.199 30.9382H313.702V343.357H321.199V30.9382Z" fill="#C2C2C2" stroke="#ABABAB" stroke-linecap="round" stroke-linejoin="round"/>
<path d="M318.949 40.675H109V54.9122H318.949V40.675Z" fill="#C2C2C2" stroke="#ABABAB" stroke-linecap="round" stroke-linejoin="round"/>
<path d="M318.949 40.675H183.836V54.9122H318.949V40.675Z" fill="#A6A6A6" stroke="#ABABAB" stroke-linecap="round" stroke-linejoin="round"/>
<path d="M318.949 184.032H109V198.269H318.949V184.032Z" fill="#C2C2C2" stroke="#ABABAB" stroke-linecap="round" stroke-linejoin="round"/>
<path d="M318.949 184.032H183.836V198.269H318.949V184.032Z" fill="#A6A6A6" stroke="#ABABAB" stroke-linecap="round" stroke-linejoin="round"/>
<path d="M318.949 327.378H109V341.615H318.949V327.378Z" fill="#C2C2C2" stroke="#ABABAB" stroke-linecap="round" stroke-linejoin="round"/>
<path d="M318.949 327.378H183.836V341.615H318.949V327.378Z" fill="#A6A6A6" stroke="#ABABAB" stroke-linecap="round" stroke-linejoin="round"/>
<path d="M124.874 250.945H15V343.243H124.874V250.945Z" fill="#FFB049"/>
<mask id="mask0_1272_692" style="mask-type:luminance" maskUnits="userSpaceOnUse" x="15" y="250" width="110" height="94">
<path d="M124.874 250.945H15V343.243H124.874V250.945Z" fill="white"/>
</mask>
<g mask="url(#mask0_1272_692)">
<path opacity="0.6" d="M124.874 250.945H15V343.243H124.874V250.945Z" fill="white" stroke="#696969" stroke-linecap="round" stroke-linejoin="round"/>
</g>
<path d="M124.874 250.945H15V343.243H124.874V250.945Z" stroke="#696969" stroke-linecap="round" stroke-linejoin="round"/>
<path d="M124.874 250.945H88.3633V343.243H124.874V250.945Z" fill="#FFB049"/>
<mask id="mask1_1272_692" style="mask-type:luminance" maskUnits="userSpaceOnUse" x="88" y="250" width="37" height="94">
<path d="M124.874 250.945H88.3633V343.243H124.874V250.945Z" fill="white"/>
</mask>
<g mask="url(#mask1_1272_692)">
<path opacity="0.39" d="M124.874 250.945H88.3633V343.243H124.874V250.945Z" fill="white" stroke="#696969" stroke-linecap="round" stroke-linejoin="round"/>
</g>
<path d="M124.874 250.945H88.3633V343.243H124.874V250.945Z" stroke="#696969" stroke-linecap="round" stroke-linejoin="round"/>
<path d="M106.997 251.194V343.357" stroke="#696969" stroke-linecap="round" stroke-linejoin="round"/>
<path d="M130.422 158.793H20.5479V251.091H130.422V158.793Z" fill="#FFB049"/>
<mask id="mask2_1272_692" style="mask-type:luminance" maskUnits="userSpaceOnUse" x="20" y="158" width="111" height="94">
<path d="M130.422 158.793H20.5479V251.091H130.422V158.793Z" fill="white"/>
</mask>
<g mask="url(#mask2_1272_692)">
<path opacity="0.6" d="M130.422 158.793H20.5479V251.091H130.422V158.793Z" fill="white" stroke="#696969" stroke-linecap="round" stroke-linejoin="round"/>
</g>
<path d="M130.422 158.793H20.5479V251.091H130.422V158.793Z" stroke="#696969" stroke-linecap="round" stroke-linejoin="round"/>
<path d="M130.422 158.793H93.9111V251.091H130.422V158.793Z" fill="#FFB049"/>
<mask id="mask3_1272_692" style="mask-type:luminance" maskUnits="userSpaceOnUse" x="93" y="158" width="38" height="94">
<path d="M130.422 158.793H93.9111V251.091H130.422V158.793Z" fill="white"/>
</mask>
<g mask="url(#mask3_1272_692)">
<path opacity="0.39" d="M130.422 158.793H93.9111V251.091H130.422V158.793Z" fill="white" stroke="#696969" stroke-linecap="round" stroke-linejoin="round"/>
</g>
<path d="M130.422 158.793H93.9111V251.091H130.422V158.793Z" stroke="#696969" stroke-linecap="round" stroke-linejoin="round"/>
<path d="M112.545 159.042V251.204" stroke="#696969" stroke-linecap="round" stroke-linejoin="round"/>
<path d="M416.347 250.945H306.473V343.243H416.347V250.945Z" fill="#FFB049"/>
<mask id="mask4_1272_692" style="mask-type:luminance" maskUnits="userSpaceOnUse" x="306" y="250" width="111" height="94">
<path d="M416.347 250.945H306.473V343.243H416.347V250.945Z" fill="white"/>
</mask>
<g mask="url(#mask4_1272_692)">
<path opacity="0.6" d="M416.347 250.945H306.473V343.243H416.347V250.945Z" fill="white" stroke="#919191" stroke-linecap="round" stroke-linejoin="round"/>
</g>
<path d="M416.347 250.945H306.473V343.243H416.347V250.945Z" stroke="#919191" stroke-linecap="round" stroke-linejoin="round"/>
<path d="M416.346 250.945H379.836V343.243H416.346V250.945Z" fill="#FFB049"/>
<mask id="mask5_1272_692" style="mask-type:luminance" maskUnits="userSpaceOnUse" x="379" y="250" width="38" height="94">
<path d="M416.346 250.945H379.836V343.243H416.346V250.945Z" fill="white"/>
</mask>
<g mask="url(#mask5_1272_692)">
<path opacity="0.39" d="M416.346 250.945H379.836V343.243H416.346V250.945Z" fill="white" stroke="#919191" stroke-linecap="round" stroke-linejoin="round"/>
</g>
<path d="M416.346 250.945H379.836V343.243H416.346V250.945Z" stroke="#919191" stroke-linecap="round" stroke-linejoin="round"/>
<path d="M398.47 251.194V343.357" stroke="#919191" stroke-linecap="round" stroke-linejoin="round"/>
<path d="M416.347 158.554H306.473V250.852H416.347V158.554Z" fill="#FFB049"/>
<mask id="mask6_1272_692" style="mask-type:luminance" maskUnits="userSpaceOnUse" x="306" y="158" width="111" height="93">
<path d="M416.347 158.554H306.473V250.852H416.347V158.554Z" fill="white"/>
</mask>
<g mask="url(#mask6_1272_692)">
<path opacity="0.6" d="M416.347 158.554H306.473V250.852H416.347V158.554Z" fill="white" stroke="#919191" stroke-linecap="round" stroke-linejoin="round"/>
</g>
<path d="M416.347 158.554H306.473V250.852H416.347V158.554Z" stroke="#919191" stroke-linecap="round" stroke-linejoin="round"/>
<path d="M416.346 158.554H379.836V250.852H416.346V158.554Z" fill="#FFB049"/>
<mask id="mask7_1272_692" style="mask-type:luminance" maskUnits="userSpaceOnUse" x="379" y="158" width="38" height="93">
<path d="M416.346 158.554H379.836V250.852H416.346V158.554Z" fill="white"/>
</mask>
<g mask="url(#mask7_1272_692)">
<path opacity="0.39" d="M416.346 158.554H379.836V250.852H416.346V158.554Z" fill="white" stroke="#919191" stroke-linecap="round" stroke-linejoin="round"/>
</g>
<path d="M416.346 158.554H379.836V250.852H416.346V158.554Z" stroke="#919191" stroke-linecap="round" stroke-linejoin="round"/>
<path d="M398.47 158.803V250.966" stroke="#919191" stroke-linecap="round" stroke-linejoin="round"/>
<path d="M406.692 82.1318H315.805V158.482H406.692V82.1318Z" fill="#FFB049"/>
<mask id="mask8_1272_692" style="mask-type:luminance" maskUnits="userSpaceOnUse" x="315" y="82" width="92" height="77">
<path d="M406.692 82.1318H315.805V158.482H406.692V82.1318Z" fill="white"/>
</mask>
<g mask="url(#mask8_1272_692)">
<path opacity="0.6" d="M406.692 82.1318H315.805V158.482H406.692V82.1318Z" fill="white" stroke="#919191" stroke-linecap="round" stroke-linejoin="round"/>
</g>
<path d="M406.692 82.1318H315.805V158.482H406.692V82.1318Z" stroke="#919191" stroke-linecap="round" stroke-linejoin="round"/>
<path d="M406.693 82.1318H376.497V158.482H406.693V82.1318Z" fill="#FFB049"/>
<mask id="mask9_1272_692" style="mask-type:luminance" maskUnits="userSpaceOnUse" x="376" y="82" width="31" height="77">
<path d="M406.693 82.1318H376.497V158.482H406.693V82.1318Z" fill="white"/>
</mask>
<g mask="url(#mask9_1272_692)">
<path opacity="0.39" d="M406.693 82.1318H376.497V158.482H406.693V82.1318Z" fill="white" stroke="#919191" stroke-linecap="round" stroke-linejoin="round"/>
</g>
<path d="M406.693 82.1318H376.497V158.482H406.693V82.1318Z" stroke="#919191" stroke-linecap="round" stroke-linejoin="round"/>
<path d="M391.906 82.3391V158.575" stroke="#919191" stroke-linecap="round" stroke-linejoin="round"/>
<path d="M292.221 308.547H277.983V317.455H292.221V308.547Z" fill="white" stroke="#263238" stroke-linecap="round" stroke-linejoin="round"/>
<path d="M158.249 343.357C163.002 343.357 166.856 339.504 166.856 334.751C166.856 329.997 163.002 326.144 158.249 326.144C153.496 326.144 149.643 329.997 149.643 334.751C149.643 339.504 153.496 343.357 158.249 343.357Z" fill="#263238" stroke="#263238" stroke-linecap="round" stroke-linejoin="round"/>
<path d="M299.874 192.296H294.793V334.948H299.874V192.296Z" fill="#263238" stroke="#263238" stroke-linecap="round" stroke-linejoin="round"/>
<path d="M297.167 242.194L285.149 232.633C280.038 228.56 276.203 223.104 274.102 216.915C272.001 210.725 271.722 204.063 273.297 197.719C273.761 195.868 274.828 194.223 276.33 193.046C277.832 191.868 279.684 191.225 281.593 191.218H312.701C314.61 191.222 316.464 191.864 317.967 193.042C319.47 194.22 320.536 195.866 320.996 197.719C322.574 204.062 322.297 210.724 320.198 216.914C318.098 223.103 314.265 228.559 309.154 232.633L297.167 242.194ZM281.613 196.081C280.783 196.078 279.975 196.355 279.321 196.866C278.666 197.378 278.203 198.095 278.005 198.901C276.65 204.338 276.886 210.049 278.686 215.355C280.486 220.661 283.773 225.337 288.156 228.827L297.147 235.982L306.147 228.827C310.532 225.338 313.822 220.663 315.625 215.357C317.429 210.052 317.67 204.34 316.32 198.901C316.12 198.096 315.656 197.38 315.002 196.868C314.348 196.357 313.541 196.08 312.711 196.081H281.613Z" fill="#263238"/>
<path d="M267.335 313.006H110V331.318H267.335V313.006Z" fill="white"/>
<mask id="mask10_1272_692" style="mask-type:luminance" maskUnits="userSpaceOnUse" x="110" y="313" width="158" height="19">
<path d="M267.335 313.006H110V331.318H267.335V313.006Z" fill="white"/>
</mask>
<g mask="url(#mask10_1272_692)">
<path opacity="0.28" d="M267.335 313.006H110V331.318H267.335V313.006Z" fill="black" stroke="#263238" stroke-linecap="round" stroke-linejoin="round"/>
</g>
<path d="M267.335 313.006H110V331.318H267.335V313.006Z" stroke="#263238" stroke-linecap="round" stroke-linejoin="round"/>
<path d="M127.628 313.006H110V331.318H127.628V313.006Z" stroke="#263238" stroke-linecap="round" stroke-linejoin="round"/>
<path d="M267.324 313.006H249.696V331.318H267.324V313.006Z" stroke="#263238" stroke-linecap="round" stroke-linejoin="round"/>
<path d="M197.476 313.006H179.848V331.318H197.476V313.006Z" stroke="#263238" stroke-linecap="round" stroke-linejoin="round"/>
<path d="M267.335 331.318H278.181L291.744 279.772H280.898L267.335 331.318Z" fill="white" stroke="#263238" stroke-linecap="round" stroke-linejoin="round"/>
<path d="M304.457 301.475H290.22V324.537H304.457V301.475Z" fill="white" stroke="#263238" stroke-linecap="round" stroke-linejoin="round"/>
<path d="M293.849 343.357C293.042 343.344 292.272 343.017 291.701 342.447C291.13 341.876 290.803 341.105 290.79 340.298V328.819C290.803 328.012 291.13 327.242 291.701 326.671C292.272 326.1 293.042 325.774 293.849 325.76C294.656 325.774 295.426 326.1 295.997 326.671C296.568 327.242 296.895 328.012 296.908 328.819V340.329C296.887 341.131 296.557 341.894 295.987 342.458C295.417 343.022 294.651 343.344 293.849 343.357Z" fill="#263238"/>
<path d="M301.118 343.357C300.31 343.344 299.54 343.017 298.969 342.447C298.398 341.876 298.072 341.105 298.059 340.298V328.819C298.072 328.012 298.398 327.242 298.969 326.671C299.54 326.1 300.31 325.774 301.118 325.76C301.934 325.76 302.717 326.081 303.299 326.653C303.881 327.225 304.215 328.003 304.228 328.819V340.329C304.207 341.14 303.869 341.91 303.288 342.476C302.707 343.041 301.928 343.358 301.118 343.357Z" fill="#263238"/>
<path d="M1 343.357H430.095" stroke="#263238" stroke-linecap="round" stroke-linejoin="round"/>
<path d="M158.908 373.314C200.279 373.314 233.817 369.238 233.817 364.21C233.817 359.182 200.279 355.105 158.908 355.105C117.538 355.105 84 359.182 84 364.21C84 369.238 117.538 373.314 158.908 373.314Z" fill="#FFB049"/>
<path opacity="0.5" d="M158.908 373.314C200.279 373.314 233.817 369.238 233.817 364.21C233.817 359.182 200.279 355.105 158.908 355.105C117.538 355.105 84 359.182 84 364.21C84 369.238 117.538 373.314 158.908 373.314Z" fill="white"/>
<path d="M313.92 364.179C313.92 366.688 297.194 368.721 276.59 368.721C255.987 368.721 239.261 366.647 239.261 364.179C239.261 361.711 255.976 359.647 276.59 359.647C297.205 359.647 313.92 361.711 313.92 364.179Z" fill="#FFB049"/>
<path opacity="0.5" d="M313.92 364.179C313.92 366.688 297.194 368.721 276.59 368.721C255.987 368.721 239.261 366.647 239.261 364.179C239.261 361.711 255.976 359.647 276.59 359.647C297.205 359.647 313.92 361.711 313.92 364.179Z" fill="white"/>
<path d="M173.851 64.2862C173.851 64.2862 168.054 59.734 161.408 62.0049C154.761 64.2758 149.721 75.3503 147.928 84.3509C146.134 93.3515 139.238 100.175 140.897 110.731C142.556 121.287 154.554 122.935 169.04 124.491C183.526 126.046 191.386 124.283 198.209 114.764C205.032 105.245 202.139 93.6626 198.105 83.4177C194.071 73.1727 187.352 63.664 181.763 61.9012C176.174 60.1384 173.851 64.2862 173.851 64.2862Z" fill="#263238" stroke="#263238" stroke-linecap="round" stroke-linejoin="round"/>
<path d="M149.897 118.425C150.876 118.864 151.893 119.212 152.936 119.461" stroke="white" stroke-linecap="round" stroke-linejoin="round"/>
<path d="M172.399 71.6587C170.037 76.9371 167.042 81.9093 163.482 86.4662C157.55 94.0876 144.433 101.284 143.593 109.279C143.458 110.349 143.552 111.436 143.868 112.467C144.185 113.499 144.716 114.451 145.428 115.262" stroke="white" stroke-linecap="round" stroke-linejoin="round"/>
<path d="M196.466 109.891C196.038 110.894 195.488 111.842 194.828 112.711" stroke="white" stroke-linecap="round" stroke-linejoin="round"/>
<path d="M191.479 89.8569C191.479 89.8569 198.146 97.551 197.503 105.764" stroke="white" stroke-linecap="round" stroke-linejoin="round"/>
<path d="M171.134 67.4178C168.535 67.1533 165.911 67.5152 163.481 68.4731C161.051 69.4311 158.886 70.9573 157.167 72.9239C156.928 73.1935 156.71 73.4631 156.503 73.7327" stroke="white" stroke-linecap="round" stroke-linejoin="round"/>
<path d="M132.881 262.87L131.585 282.821C131.585 282.821 126.068 309.584 124.326 320.617C122.584 331.65 119.39 348.428 118.81 348.428C118.229 348.428 108.71 354.183 105.661 358.88C102.613 363.577 106.481 365.568 110.711 364.065C114.942 362.561 120.687 358.31 122.563 353.26C124.44 348.21 125.374 346.333 125.498 345.514C125.622 344.695 145.687 290.826 147.678 285.071C149.669 279.316 153.9 262.414 153.9 262.414L163.761 228.962C163.761 228.962 174.317 263.357 174.441 264.882C174.566 266.406 185.35 354.318 185.848 357.605C186.345 360.892 186.2 363.235 188.191 363.94C190.182 364.645 194.879 364.645 197.347 364.645C199.815 364.645 208.38 365.942 212.601 364.884C216.821 363.826 217.298 363.121 214.363 361.006C211.429 358.89 195.128 357.542 193.625 351.383C193.5 350.916 193.386 260.423 193.386 260.423C193.386 260.423 191.976 230.497 189.633 222.056H135.401L132.881 262.87Z" fill="white" stroke="#263238" stroke-linecap="round" stroke-linejoin="round"/>
<path d="M110.702 364.044C114.922 362.509 120.677 358.289 122.554 353.239L122.948 352.202C120.552 354.753 116.726 358.299 116.726 358.299C116.492 357.096 115.969 355.968 115.202 355.012C114.867 354.643 114.439 354.372 113.962 354.228C113.485 354.084 112.978 354.072 112.495 354.193L116.643 349.631C113.532 351.559 107.933 355.5 105.735 358.89C102.593 363.567 106.45 365.568 110.702 364.044Z" fill="#263238" stroke="#263238" stroke-linecap="round" stroke-linejoin="round"/>
<path d="M214.291 360.985C212.28 359.544 204.015 358.455 198.499 355.935C198.271 356.129 198.093 356.374 197.98 356.651C197.63 357.644 197.356 358.664 197.161 359.699L185.755 357.262V357.584C186.222 360.871 186.107 363.214 188.098 363.919C190.089 364.625 194.787 364.625 197.255 364.625C199.722 364.625 208.288 365.921 212.508 364.863C216.728 363.805 217.267 363.142 214.291 360.985Z" fill="#263238" stroke="#263238" stroke-linecap="round" stroke-linejoin="round"/>
<path d="M148.684 173.382C148.684 173.382 143.303 175.861 136.791 187.557C129.667 200.322 130.891 207.415 130.787 222.813C130.683 238.212 130.372 263.772 130.372 263.772C130.372 263.772 150.074 269.05 164.207 268.221C178.341 267.391 196.269 264.187 196.269 264.187C196.269 264.187 192.443 212.05 188.824 197.056C185.205 182.061 183.028 175.28 183.028 175.28C176.033 176.251 168.946 176.355 161.926 175.591C149.929 174.419 148.684 173.382 148.684 173.382Z" fill="#263238" stroke="#263238" stroke-linecap="round" stroke-linejoin="round"/>
<path d="M171.352 219.495C171.891 221.268 172.388 223.062 172.824 224.856" stroke="white" stroke-linecap="round" stroke-linejoin="round"/>
<path d="M158.856 190.15C163.034 197.857 166.618 205.872 169.578 214.124" stroke="white" stroke-linecap="round" stroke-linejoin="round"/>
<path d="M280.78 163.469C280.158 163.055 269.964 161.458 269.964 161.458L267.974 160.638C267.974 160.638 280.313 161.624 280.417 161.105C280.52 160.587 280.935 159.964 280.106 159.861C279.276 159.757 263.401 156.532 263.401 156.532C263.401 156.532 267.434 152.716 267.953 151.887C268.471 151.057 269.187 149.398 268.357 149.398C267.528 149.398 267.32 149.917 266.19 150.642C265.06 151.368 260.601 153.131 259.357 154.158C258.112 155.184 254.4 157.88 254.4 157.88L211.284 151.949C211.284 151.949 196.145 133.284 192.858 129.302C190.573 126.645 187.972 124.277 185.112 122.251C181.939 120.851 182.001 123.195 182.001 123.195L188.627 152.644C188.627 152.644 205.768 162.858 206.825 162.858C207.883 162.858 254.193 164.392 254.193 164.392C254.193 164.392 257.303 165.844 259.253 167.078C261.202 168.312 273.635 172.263 273.635 172.263C273.635 172.263 274.465 171.848 273.532 171.122C272.598 170.396 266.605 167.503 266.605 167.503L279.048 170.199C279.048 170.199 279.774 169.681 279.463 169.162C279.152 168.644 268.057 164.403 268.057 164.403L280.5 165.025C280.5 165.025 281.392 163.884 280.78 163.469Z" fill="white" stroke="#263238" stroke-linecap="round" stroke-linejoin="round"/>
<path d="M208.681 148.745C204.212 143.239 195.284 132.247 192.858 129.302C190.573 126.645 187.972 124.277 185.112 122.251C181.939 120.851 182.001 123.195 182.001 123.195L188.627 152.644C188.627 152.644 196.363 157.248 201.755 160.276L208.681 148.745Z" fill="white" stroke="#263238" stroke-linecap="round" stroke-linejoin="round"/>
<path d="M162.859 119.731C162.859 119.731 153.859 120.146 148.342 126.254C142.826 132.361 143.479 145.8 145.76 153.867C148.041 161.935 150.945 166.383 150.312 169.183C149.68 171.982 147.419 172.905 148.653 175.487C149.887 178.069 157.032 180.869 169.651 180.454C182.271 180.039 184.656 177.343 184.759 174.979C184.863 172.615 183.93 170.634 184.241 169.183C184.552 167.731 193.656 159.664 193.656 150.767C193.656 141.87 189.726 138.769 188.793 132.351C187.86 125.932 188.171 125.009 184.345 122.209C180.518 119.41 167.93 117.968 162.859 119.731Z" fill="white" stroke="#263238" stroke-linecap="round" stroke-linejoin="round"/>
<path d="M158.773 150.57C155.765 153.087 152.426 155.18 148.85 156.791" stroke="#263238" stroke-linecap="round" stroke-linejoin="round"/>
<path d="M159.769 151.607C159.769 151.607 157.54 158.803 152.075 162.775" stroke="#263238" stroke-linecap="round" stroke-linejoin="round"/>
<path d="M182.104 126.243L183.141 136.177L178.786 131.106L182.104 126.243Z" fill="white" stroke="#263238" stroke-linecap="round" stroke-linejoin="round"/>
<path d="M176.309 137.007L182.105 126.243L176.827 120.561L176.309 137.007Z" fill="white" stroke="#263238" stroke-linecap="round" stroke-linejoin="round"/>
<path d="M165.141 102.145C166.044 105.731 166.494 109.417 166.478 113.116C166.448 115.51 166.205 117.898 165.752 120.25L176.308 137.007L179.305 121.453L181.275 110.689C181.275 110.689 169.278 110.005 165.141 102.145Z" fill="white" stroke="#263238" stroke-linecap="round" stroke-linejoin="round"/>
<path d="M175.686 128.006L176.308 137.006L173.208 132.143L175.686 128.006Z" fill="white" stroke="#263238" stroke-linecap="round" stroke-linejoin="round"/>
<path d="M162.237 119.835L171.86 137.11L175.686 128.006L165.452 113.935L162.237 119.835Z" fill="white" stroke="#263238" stroke-linecap="round" stroke-linejoin="round"/>
<path d="M330.822 127.892H243.502V199.544H330.822V127.892Z" fill="#FFB049"/>
<mask id="mask11_1272_692" style="mask-type:luminance" maskUnits="userSpaceOnUse" x="243" y="127" width="88" height="73">
<path d="M330.822 127.892H243.502V199.544H330.822V127.892Z" fill="white"/>
</mask>
<g mask="url(#mask11_1272_692)">
<path opacity="0.2" d="M330.822 127.892H243.502V199.544H330.822V127.892Z" fill="black"/>
</g>
<path d="M330.822 127.892H243.502V199.544H330.822V127.892Z" stroke="#263238" stroke-linecap="round" stroke-linejoin="round"/>
<path d="M312.333 127.892H225.013V199.544H312.333V127.892Z" fill="#FFB049" stroke="#263238" stroke-linecap="round" stroke-linejoin="round"/>
<path d="M345.204 223.663C342.405 219.225 330.822 199.544 330.822 199.544H312.344L321.852 223.663H345.204Z" fill="#FFB049"/>
<mask id="mask12_1272_692" style="mask-type:luminance" maskUnits="userSpaceOnUse" x="312" y="199" width="34" height="25">
<path d="M345.204 223.663C342.405 219.225 330.822 199.544 330.822 199.544H312.344L321.852 223.663H345.204Z" fill="white"/>
</mask>
<g mask="url(#mask12_1272_692)">
<path opacity="0.2" d="M345.204 223.663C342.405 219.225 330.822 199.544 330.822 199.544H312.344L321.852 223.663H345.204Z" fill="black"/>
</g>
<path d="M345.204 223.663C342.405 219.225 330.822 199.544 330.822 199.544H312.344L321.852 223.663H345.204Z" stroke="#263238" stroke-linecap="round" stroke-linejoin="round"/>
<path d="M210.579 223.663C213.379 219.225 224.951 199.544 224.951 199.544H243.44L233.931 223.663H210.579Z" fill="#FFB049" stroke="#263238" stroke-linecap="round" stroke-linejoin="round"/>
<path d="M224.951 199.544L216.915 223.663H308.114L312.344 199.544H224.951Z" fill="#FFB049" stroke="#263238" stroke-linecap="round" stroke-linejoin="round"/>
<path d="M342.062 153.815V177.81" stroke="#263238" stroke-linecap="round" stroke-linejoin="round"/>
<path d="M346.604 164.195V183.648" stroke="#263238" stroke-linecap="round" stroke-linejoin="round"/>
<path d="M215.629 177.81V192.721" stroke="#263238" stroke-linecap="round" stroke-linejoin="round"/>
<path d="M211.74 186.24V197.906" stroke="#263238" stroke-linecap="round" stroke-linejoin="round"/>
<path d="M147.854 145.489C150.949 148.994 154.54 152.026 158.514 154.489C164.736 158.212 187.548 171.142 189.342 171.868C191.136 172.594 245.617 163.697 245.617 163.697C245.617 163.697 248.728 165.149 250.688 166.383C252.647 167.617 265.07 171.568 265.07 171.568C265.07 171.568 265.899 171.153 264.966 170.437C264.033 169.722 258.039 166.808 258.039 166.808L270.483 169.504C270.483 169.504 271.209 168.986 270.897 168.467C270.586 167.949 259.491 163.708 259.491 163.708L271.934 164.33C271.934 164.33 272.868 163.189 272.246 162.774C271.623 162.36 258.879 159.456 258.879 159.456C258.879 159.456 272.432 158.316 272.536 157.797C272.64 157.279 273.054 156.667 272.225 156.563C271.395 156.459 254.431 154.8 254.431 154.8C254.431 154.8 258.879 152.011 259.398 151.181C259.916 150.352 260.642 148.693 259.813 148.693C258.983 148.693 258.776 149.211 257.645 149.937C256.515 150.663 252.056 152.426 250.812 153.452C249.568 154.479 245.845 157.185 245.845 157.185L195.989 157.289L165.037 132.869" fill="white"/>
<path d="M147.854 145.489C150.949 148.994 154.54 152.026 158.514 154.489C164.736 158.212 187.548 171.142 189.342 171.868C191.136 172.594 245.617 163.697 245.617 163.697C245.617 163.697 248.728 165.149 250.688 166.383C252.647 167.617 265.07 171.568 265.07 171.568C265.07 171.568 265.899 171.153 264.966 170.437C264.033 169.722 258.039 166.808 258.039 166.808L270.483 169.504C270.483 169.504 271.209 168.986 270.897 168.467C270.586 167.949 259.491 163.708 259.491 163.708L271.934 164.33C271.934 164.33 272.868 163.189 272.246 162.774C271.623 162.36 258.879 159.456 258.879 159.456C258.879 159.456 272.432 158.316 272.536 157.797C272.64 157.279 273.054 156.667 272.225 156.563C271.395 156.459 254.431 154.8 254.431 154.8C254.431 154.8 258.879 152.011 259.398 151.181C259.916 150.352 260.642 148.693 259.813 148.693C258.983 148.693 258.776 149.211 257.645 149.937C256.515 150.663 252.056 152.426 250.812 153.452C249.568 154.479 245.845 157.185 245.845 157.185L195.989 157.289L165.037 132.869" stroke="#263238" stroke-linecap="round" stroke-linejoin="round"/>
<path d="M272.204 156.563C271.385 156.46 254.41 154.8 254.41 154.8C254.41 154.8 258.859 152.011 259.377 151.182C259.896 150.352 260.621 148.693 259.792 148.693C258.962 148.693 258.755 149.211 257.625 149.937C256.494 150.663 252.036 152.426 250.791 153.452C249.547 154.479 245.824 157.185 245.824 157.185L195.968 157.289L190.442 152.903C188.368 156.542 184.489 163.366 181.97 167.866C185.848 170.023 188.782 171.63 189.373 171.868C191.136 172.594 245.648 163.697 245.648 163.697C245.648 163.697 248.759 165.149 250.719 166.383C252.678 167.617 265.101 171.568 265.101 171.568C265.101 171.568 265.931 171.153 264.997 170.437C264.064 169.722 258.071 166.808 258.071 166.808L270.514 169.504C270.514 169.504 271.24 168.986 270.929 168.467C270.617 167.949 259.522 163.708 259.522 163.708L271.965 164.33C271.965 164.33 272.899 163.189 272.277 162.774C271.654 162.36 258.879 159.456 258.879 159.456C258.879 159.456 272.432 158.316 272.536 157.797C272.64 157.279 273.034 156.667 272.204 156.563Z" fill="white" stroke="#263238" stroke-linecap="round" stroke-linejoin="round"/>
<path d="M188.72 93.4552C188.897 93.2406 189.13 93.08 189.394 92.9918C189.657 92.9035 189.94 92.8911 190.211 92.956C190.481 93.0209 190.727 93.1604 190.922 93.3586C191.117 93.5569 191.252 93.8059 191.312 94.0773C191.485 95.2022 191.428 96.3505 191.142 97.4523C190.857 98.554 190.35 99.5861 189.653 100.486C188.513 101.626 187.476 101.937 187.476 100.486C187.764 98.1214 188.179 95.7745 188.72 93.4552Z" fill="white" stroke="#263238" stroke-linecap="round" stroke-linejoin="round"/>
<path d="M175.986 75.3296C175.623 80.376 173.464 85.1252 169.9 88.7165C166.579 91.9813 162.825 94.7728 158.742 97.012C158.742 97.012 159.344 100.258 160.567 101.274C161.791 102.29 164.217 102.093 164.217 102.093C165.628 105.95 167.922 109.423 170.916 112.234C175.779 116.693 181.461 116.289 184.707 109.6C187.953 102.912 189.581 96.2031 189.176 92.3457L188.772 88.4883C188.772 88.4883 178.216 82.6296 175.986 75.3296Z" fill="white" stroke="#263238" stroke-linecap="round" stroke-linejoin="round"/>
<path d="M175.375 95.3839C175.89 95.3839 176.308 94.6411 176.308 93.7248C176.308 92.8085 175.89 92.0657 175.375 92.0657C174.859 92.0657 174.441 92.8085 174.441 93.7248C174.441 94.6411 174.859 95.3839 175.375 95.3839Z" fill="#263238"/>
<path d="M180.446 108.626C180.961 108.626 181.379 107.883 181.379 106.966C181.379 106.05 180.961 105.307 180.446 105.307C179.931 105.307 179.513 106.05 179.513 106.966C179.513 107.883 179.931 108.626 180.446 108.626Z" fill="#263238"/>
<path d="M184.376 95.3839C184.891 95.3839 185.309 94.6411 185.309 93.7248C185.309 92.8085 184.891 92.0657 184.376 92.0657C183.86 92.0657 183.442 92.8085 183.442 93.7248C183.442 94.6411 183.86 95.3839 184.376 95.3839Z" fill="#263238"/>
<path d="M182.509 91.9619C182.153 93.2041 182.047 94.5048 182.198 95.7882C182.509 97.551 183.961 100.548 182.716 101.066C182.149 101.325 181.521 101.424 180.901 101.35C180.281 101.277 179.693 101.036 179.201 100.651" stroke="#263238" stroke-linecap="round" stroke-linejoin="round"/>
<path d="M172.679 90.7279C172.679 90.7279 173.176 87.5549 177.335 87.9178" stroke="#263238" stroke-linecap="round" stroke-linejoin="round"/>
<path d="M183.815 88.8927C183.815 88.8927 187.694 85.7819 188.948 91.4747" stroke="#263238" stroke-linecap="round" stroke-linejoin="round"/>
</svg>
