<svg width="45" height="45" viewBox="0 0 45 45" fill="none" xmlns="http://www.w3.org/2000/svg">
<path d="M44.6042 22.4398C44.6042 34.6495 34.7083 44.5454 22.4985 44.5454C17.4996 44.5454 12.8934 42.8874 9.19059 40.0909L14.6598 36.9325C16.9922 38.1946 19.6619 38.9123 22.4985 38.9123C31.4448 38.9123 38.7236 31.785 38.968 22.8976C38.9711 22.7429 38.9742 22.5913 38.9742 22.4367C38.9742 21.8829 38.9463 21.3323 38.8937 20.791C38.8628 20.4847 38.8257 20.1816 38.7762 19.8815C38.6679 19.1917 38.5194 18.5173 38.3307 17.8553C38.2689 17.6418 38.2039 17.4315 38.1328 17.2242L30.7271 21.4994L30.2971 22.4923L29.0412 25.4095L23.739 28.4194L11.9654 35.1074L6.82721 38.0245L0 41.9067L1.23428 39.2804L1.71376 38.2565L5.22172 36.2303L10.1712 33.372L13.2708 31.5809L25.3971 24.5804L27.4047 19.9186L32.7378 16.8406L36.9047 14.434L41.783 11.6189C42.278 12.5006 42.7141 13.4162 43.0853 14.3659C43.1658 14.5701 43.2431 14.7742 43.3174 14.9815C43.5494 15.628 43.7504 16.29 43.9237 16.9644C43.9979 17.249 44.0629 17.5336 44.1247 17.8244C44.2578 18.4523 44.366 19.0927 44.4434 19.7423C44.5516 20.627 44.6073 21.5272 44.6073 22.4398H44.6042Z" fill="#6C35A7"/>
<path d="M0.116375 22.1057C0.116375 9.8959 10.0123 0 22.2221 0C27.221 0 31.8272 1.65808 35.53 4.45455L30.0608 7.61294C27.7284 6.35082 25.0587 5.63314 22.2221 5.63314C13.2758 5.63314 5.99699 12.7604 5.75261 21.6479C5.74952 21.8025 5.74642 21.9541 5.74642 22.1088C5.74642 22.6625 5.77427 23.2131 5.82685 23.7545C5.85779 24.0607 5.89491 24.3639 5.9444 24.664C6.05267 25.3538 6.20116 26.0282 6.38986 26.6902C6.45173 26.9036 6.51669 27.114 6.58784 27.3212L13.9935 23.0461L14.4235 22.0531L15.6794 19.136L20.9816 16.1261L32.7552 9.43807L37.8934 6.52096L44.7206 2.64489L43.4863 5.27121L43.0068 6.29514L39.4989 8.32134L34.5494 11.1797L31.4498 12.9708L19.3235 19.9712L17.3159 24.633L11.9828 27.711L7.81593 30.1177L2.93759 32.9327C2.44264 32.0511 2.00646 31.1354 1.63525 30.1857C1.55482 29.9816 1.47749 29.7774 1.40324 29.5701C1.17124 28.9236 0.970163 28.2616 0.79693 27.5872C0.722688 27.3027 0.657726 27.0181 0.595857 26.7273C0.462839 26.0993 0.354569 25.459 0.277233 24.8093C0.168963 23.9246 0.113281 23.0244 0.113281 22.1119L0.116375 22.1057Z" fill="#6C35A7"/>
</svg>
