<svg width="28" height="28" viewBox="0 0 28 28" fill="none" xmlns="http://www.w3.org/2000/svg">
<g filter="url(#filter0_d_3034_1456)">
<circle cx="14" cy="12" r="10" fill="white"/>
<g clip-path="url(#clip0_3034_1456)">
<path d="M18.1064 12.3353C18.3456 12.0962 18.3456 11.7078 18.1064 11.4686L15.0452 8.4074C14.806 8.16824 14.4176 8.16824 14.1785 8.4074C13.9393 8.64655 13.9393 9.03495 14.1785 9.27411L16.197 11.2907H10.3271C9.98844 11.2907 9.71484 11.5643 9.71484 11.9029C9.71484 12.2416 9.98844 12.5152 10.3271 12.5152H16.1951L14.1804 14.5318C13.9412 14.7709 13.9412 15.1593 14.1804 15.3985C14.4196 15.6376 14.808 15.6376 15.0471 15.3985L18.1083 12.3372L18.1064 12.3353Z" fill="#6C35A7"/>
</g>
</g>
<defs>
<filter id="filter0_d_3034_1456" x="0" y="0" width="28" height="28" filterUnits="userSpaceOnUse" color-interpolation-filters="sRGB">
<feFlood flood-opacity="0" result="BackgroundImageFix"/>
<feColorMatrix in="SourceAlpha" type="matrix" values="0 0 0 0 0 0 0 0 0 0 0 0 0 0 0 0 0 0 127 0" result="hardAlpha"/>
<feOffset dy="2"/>
<feGaussianBlur stdDeviation="2"/>
<feComposite in2="hardAlpha" operator="out"/>
<feColorMatrix type="matrix" values="0 0 0 0 0 0 0 0 0 0 0 0 0 0 0 0 0 0 0.3 0"/>
<feBlend mode="normal" in2="BackgroundImageFix" result="effect1_dropShadow_3034_1456"/>
<feBlend mode="normal" in="SourceGraphic" in2="effect1_dropShadow_3034_1456" result="shape"/>
</filter>
<clipPath id="clip0_3034_1456">
<rect width="8.57143" height="9.79592" fill="white" transform="translate(7.50781 11.4702) rotate(-45)"/>
</clipPath>
</defs>
</svg>
