<svg width="28" height="28" viewBox="0 0 28 28" fill="none" xmlns="http://www.w3.org/2000/svg">
<path opacity="0.3" d="M22.4935 10.0334L21.6768 8.62169L20.1952 9.21669L18.9585 9.71835L17.8968 8.90169C17.4418 8.55169 16.9635 8.27169 16.4618 8.07335L15.2252 7.57169L15.0385 6.25335L14.8168 4.66669H13.1835L12.9618 6.24169L12.7752 7.56002L11.5385 8.07335C11.0602 8.27169 10.5818 8.55169 10.0802 8.92502L9.03017 9.71835L7.80517 9.22835L6.3235 8.62169L5.50684 10.0334L6.76684 11.0134L7.80517 11.83L7.64184 13.1484C7.60684 13.4984 7.5835 13.7667 7.5835 14C7.5835 14.2334 7.60684 14.5017 7.64184 14.8517L7.80517 16.17L6.76684 16.9867L5.50684 17.9667L6.3235 19.3784L7.80517 18.7834L9.04184 18.2817L10.1035 19.0984C10.5585 19.4484 11.0368 19.7284 11.5385 19.9267L12.7752 20.4284L12.9618 21.7467L13.1835 23.3334H14.8052L15.0268 21.7584L15.2135 20.44L16.4502 19.9384C16.9285 19.74 17.4068 19.46 17.9085 19.0867L18.9585 18.2934L20.1718 18.7834L21.6535 19.3784L22.4702 17.9667L21.2102 16.9867L20.1718 16.17L20.3352 14.8517C20.3818 14.49 20.3935 14.245 20.3935 14C20.3935 13.755 20.3702 13.4984 20.3352 13.1484L20.1718 11.83L21.2102 11.0134L22.4935 10.0334ZM14.0002 18.6667C11.4218 18.6667 9.3335 16.5784 9.3335 14C9.3335 11.4217 11.4218 9.33335 14.0002 9.33335C16.5785 9.33335 18.6668 11.4217 18.6668 14C18.6668 16.5784 16.5785 18.6667 14.0002 18.6667Z" fill="#6C35A7"/>
<path d="M22.6686 15.1433C22.7153 14.77 22.7503 14.3967 22.7503 14C22.7503 13.6033 22.7153 13.23 22.6686 12.8567L25.1303 10.9317C25.352 10.7567 25.4103 10.4417 25.2703 10.185L22.937 6.14834C22.8682 6.02797 22.7588 5.93603 22.6284 5.889C22.498 5.84197 22.3551 5.84291 22.2253 5.89168L19.3203 7.05834C18.7136 6.59168 18.0603 6.20668 17.3486 5.91501L16.9053 2.82334C16.8855 2.68628 16.8167 2.56106 16.7115 2.47094C16.6064 2.38082 16.4721 2.33192 16.3336 2.33334H11.667C11.3753 2.33334 11.1303 2.54334 11.0953 2.82334L10.652 5.91501C9.9403 6.20668 9.28697 6.60334 8.6803 7.05834L5.7753 5.89168C5.70749 5.86937 5.63668 5.85757 5.5653 5.85668C5.36697 5.85668 5.16863 5.96168 5.06363 6.14834L2.7303 10.185C2.57863 10.4417 2.64863 10.7567 2.8703 10.9317L5.33197 12.8567C5.2853 13.23 5.2503 13.615 5.2503 14C5.2503 14.385 5.2853 14.77 5.33197 15.1433L2.8703 17.0683C2.64863 17.2433 2.5903 17.5583 2.7303 17.815L5.06363 21.8517C5.13241 21.972 5.24181 22.064 5.37222 22.111C5.50263 22.1581 5.64553 22.1571 5.7753 22.1083L8.6803 20.9417C9.28697 21.4083 9.9403 21.7933 10.652 22.085L11.0953 25.1767C11.1303 25.4567 11.3753 25.6667 11.667 25.6667H16.3336C16.6253 25.6667 16.8703 25.4567 16.9053 25.1767L17.3486 22.085C18.0603 21.7933 18.7136 21.3967 19.3203 20.9417L22.2253 22.1083C22.2953 22.1317 22.3653 22.1433 22.4353 22.1433C22.6336 22.1433 22.832 22.0383 22.937 21.8517L25.2703 17.815C25.4103 17.5583 25.352 17.2433 25.1303 17.0683L22.6686 15.1433ZM20.3586 13.1483C20.4053 13.51 20.417 13.755 20.417 14C20.417 14.245 20.3936 14.5017 20.3586 14.8517L20.1953 16.17L21.2336 16.9867L22.4936 17.9667L21.677 19.3783L20.1953 18.7833L18.982 18.2933L17.932 19.0867C17.4303 19.46 16.952 19.74 16.4736 19.9383L15.237 20.44L15.0503 21.7583L14.817 23.3333H13.1836L12.962 21.7583L12.7753 20.44L11.5386 19.9383C11.037 19.7283 10.5703 19.46 10.1036 19.11L9.04197 18.2933L7.8053 18.795L6.32363 19.39L5.50697 17.9783L6.76697 16.9983L7.8053 16.1817L7.64197 14.8633C7.60697 14.5017 7.58363 14.2333 7.58363 14C7.58363 13.7667 7.60697 13.4983 7.64197 13.1483L7.8053 11.83L6.76697 11.0133L5.50697 10.0333L6.32363 8.62168L7.8053 9.21668L9.01863 9.70668L10.0686 8.91334C10.5703 8.54001 11.0486 8.26001 11.527 8.06168L12.7636 7.56001L12.9503 6.24168L13.1836 4.66668H14.8053L15.027 6.24168L15.2136 7.56001L16.4503 8.06168C16.952 8.27168 17.4186 8.54001 17.8853 8.89001L18.947 9.70668L20.1836 9.20501L21.6653 8.61001L22.482 10.0217L21.2336 11.0133L20.1953 11.83L20.3586 13.1483ZM14.0003 9.33334C11.422 9.33334 9.33363 11.4217 9.33363 14C9.33363 16.5783 11.422 18.6667 14.0003 18.6667C16.5786 18.6667 18.667 16.5783 18.667 14C18.667 11.4217 16.5786 9.33334 14.0003 9.33334ZM14.0003 16.3333C12.717 16.3333 11.667 15.2833 11.667 14C11.667 12.7167 12.717 11.6667 14.0003 11.6667C15.2836 11.6667 16.3336 12.7167 16.3336 14C16.3336 15.2833 15.2836 16.3333 14.0003 16.3333Z" fill="#6C35A7"/>
</svg>
