<svg width="24" height="24" viewBox="0 0 24 24" fill="none" xmlns="http://www.w3.org/2000/svg">
<path d="M13.5002 5.50001L6.45315 12.547C6.22815 12.772 6.11615 12.884 6.04515 13.023C5.97315 13.162 5.94715 13.319 5.89515 13.633L5.11515 18.31C5.06315 18.624 5.03615 18.782 5.12715 18.873C5.21815 18.964 5.37615 18.937 5.69015 18.885L10.3682 18.105C10.6812 18.053 10.8382 18.027 10.9782 17.955C11.1162 17.884 11.2282 17.772 11.4532 17.547L18.5002 10.5C19.5172 9.48301 20.0262 8.97401 20.1382 8.36301C20.1832 8.12301 20.1832 7.87701 20.1382 7.63701C20.0262 7.02601 19.5182 6.51701 18.5002 5.50001C17.4822 4.48301 16.9742 3.97401 16.3632 3.86201C16.1232 3.81772 15.8771 3.81772 15.6372 3.86201C15.0262 3.97401 14.5172 4.48201 13.5002 5.50001Z" fill="black" fill-opacity="0.25"/>
<path d="M12.2932 6.70697L6.45315 12.547C6.22815 12.772 6.11615 12.884 6.04515 13.023C5.97315 13.162 5.94715 13.319 5.89515 13.633L5.11515 18.31C5.06315 18.624 5.03615 18.782 5.12715 18.873C5.21815 18.964 5.37615 18.937 5.69015 18.885L10.3682 18.105C10.6812 18.053 10.8382 18.027 10.9782 17.955C11.1162 17.884 11.2282 17.772 11.4532 17.547L17.2932 11.707C17.6262 11.374 17.7932 11.207 17.7932 11C17.7932 10.793 17.6262 10.626 17.2932 10.293L13.7072 6.70697C13.3742 6.37397 13.2072 6.20697 13.0002 6.20697C12.7932 6.20697 12.6262 6.37397 12.2932 6.70697Z" fill="#6C35A7"/>
</svg>
