<svg width="140" height="45" viewBox="0 0 140 45" fill="none" xmlns="http://www.w3.org/2000/svg">
<path d="M44.6042 22.4398C44.6042 34.6496 34.7083 44.5455 22.4985 44.5455C17.4996 44.5455 12.8934 42.8874 9.19059 40.0909L14.6598 36.9325C16.9922 38.1946 19.6619 38.9123 22.4985 38.9123C31.4448 38.9123 38.7236 31.785 38.968 22.8976C38.9711 22.7429 38.9742 22.5914 38.9742 22.4367C38.9742 21.883 38.9463 21.3323 38.8937 20.791C38.8628 20.4847 38.8257 20.1816 38.7762 19.8815C38.6679 19.1917 38.5194 18.5173 38.3307 17.8553C38.2689 17.6419 38.2039 17.4315 38.1328 17.2242L30.7271 21.4994L30.2971 22.4924L29.0412 25.4095L23.739 28.4194L11.9654 35.1074L6.82721 38.0245L0 41.9068L1.23428 39.2804L1.71376 38.2565L5.22172 36.2303L10.1712 33.372L13.2708 31.5809L25.3971 24.5804L27.4047 19.9186L32.7378 16.8407L36.9047 14.434L41.783 11.6189C42.278 12.5006 42.7141 13.4162 43.0853 14.3659C43.1658 14.5701 43.2431 14.7742 43.3174 14.9815C43.5494 15.628 43.7504 16.29 43.9237 16.9644C43.9979 17.249 44.0629 17.5336 44.1247 17.8244C44.2578 18.4523 44.366 19.0927 44.4434 19.7423C44.5516 20.627 44.6073 21.5272 44.6073 22.4398H44.6042Z" fill="#6C35A7"/>
<path d="M0.118328 22.1057C0.118328 9.89591 10.0142 1.52588e-05 22.224 1.52588e-05C27.223 1.52588e-05 31.8291 1.6581 35.532 4.45456L30.0628 7.61296C27.7303 6.35084 25.0607 5.63316 22.224 5.63316C13.2778 5.63316 5.99895 12.7604 5.75456 21.6479C5.75147 21.8025 5.74838 21.9541 5.74838 22.1088C5.74838 22.6625 5.77622 23.2131 5.82881 23.7545C5.85974 24.0607 5.89686 24.3639 5.94636 24.664C6.05463 25.3538 6.20311 26.0282 6.39181 26.6902C6.45368 26.9036 6.51864 27.114 6.58979 27.3212L13.9955 23.0461L14.4255 22.0531L15.6814 19.136L20.9835 16.1261L32.7572 9.43808L37.8953 6.52097L44.7226 2.6449L43.4883 5.27123L43.0088 6.29515L39.5008 8.32135L34.5513 11.1797L31.4517 12.9708L19.3255 19.9712L17.3178 24.633L11.9847 27.711L7.81789 30.1177L2.93954 32.9327C2.44459 32.0511 2.00842 31.1354 1.6372 30.1857C1.55677 29.9816 1.47944 29.7774 1.4052 29.5702C1.17319 28.9236 0.972116 28.2616 0.798883 27.5873C0.724641 27.3027 0.659679 27.0181 0.59781 26.7273C0.464792 26.0993 0.356522 25.459 0.279186 24.8094C0.170916 23.9246 0.115234 23.0244 0.115234 22.1119L0.118328 22.1057Z" fill="#6C35A7"/>
<path d="M63.0989 29.6801C64.2237 29.6801 65.0867 29.9641 65.6881 30.5321C66.3006 31.1 66.6069 31.913 66.6069 32.9709C66.6069 33.7839 66.4287 34.4966 66.0723 35.1091C65.7159 35.7105 65.2037 36.1782 64.5355 36.5123C63.8784 36.8464 63.1045 37.0134 62.2136 37.0134H61.1445V37.0468L61.2447 40.4546H58.9729L59.0898 37.2473L58.9729 29.6968L63.0989 29.6801ZM62.7147 35.3597C63.7392 35.0701 64.2515 34.3407 64.2515 33.1714C64.2515 32.57 64.0956 32.1246 63.7838 31.835C63.4831 31.5343 63.0154 31.3729 62.3806 31.3506L61.2447 31.4174L61.1779 35.2929L62.7147 35.3597ZM74.5204 36.1782C75.389 37.5591 76.2521 38.8064 77.1096 39.92L77.0762 40.1706C76.3523 40.4267 75.6117 40.5771 74.8545 40.6216L74.6206 40.4379C73.8188 39.057 73.1673 37.8542 72.6662 36.8297H71.0458V37.0468L71.1461 40.4546H68.8742L68.9912 37.2473L68.8742 29.6968L73.0003 29.6801C74.125 29.6801 74.9937 29.9586 75.6062 30.5154C76.2187 31.0611 76.5249 31.8462 76.5249 32.8707C76.5249 33.5612 76.3467 34.1959 75.9904 34.775C75.6451 35.343 75.1551 35.8107 74.5204 36.1782ZM71.0792 35.0757L72.733 35.1425C73.6796 34.8196 74.1529 34.1347 74.1529 33.0879C74.1529 32.5199 73.997 32.0967 73.6851 31.8183C73.3845 31.5288 72.9167 31.3729 72.282 31.3506L71.1461 31.4174L71.0792 35.0757ZM83.492 29.5465C85.0066 29.5465 86.1703 30.0087 86.9833 30.933C87.8074 31.8462 88.2194 33.1491 88.2194 34.8418C88.2194 36.6905 87.7739 38.1159 86.883 39.1182C85.9921 40.1205 84.7337 40.6216 83.1078 40.6216C81.6044 40.6216 80.4407 40.1539 79.6166 39.2184C78.8036 38.2718 78.3971 36.9355 78.3971 35.2093C78.3971 33.3941 78.837 31.9965 79.7168 31.0165C80.6077 30.0365 81.8661 29.5465 83.492 29.5465ZM83.2916 31.3673C82.4007 31.3673 81.7547 31.6457 81.3538 32.2025C80.9529 32.7593 80.7525 33.667 80.7525 34.9254C80.7525 36.362 80.9474 37.3865 81.3371 37.999C81.738 38.6115 82.3951 38.9178 83.3083 38.9178C84.1992 38.9178 84.8451 38.6393 85.246 38.0825C85.6469 37.5146 85.8474 36.5903 85.8474 35.3096C85.8474 33.8953 85.6469 32.8874 85.246 32.2861C84.8562 31.6736 84.2047 31.3673 83.2916 31.3673Z" fill="#6C35A7"/>
<path d="M63.5687 5.84832C65.8373 5.84832 67.5881 6.53056 68.821 7.89503C70.054 9.24306 70.6705 11.1665 70.6705 13.6653C70.6705 16.3942 69.9965 18.5149 68.6484 20.0273C67.3004 21.5233 65.4017 22.2713 62.9522 22.2713C60.7 22.2713 58.9574 21.5808 57.7245 20.1999C56.4915 18.8026 55.875 16.8298 55.875 14.2817C55.875 11.5857 56.5408 9.50609 57.8724 8.04298C59.2204 6.57988 61.1192 5.84832 63.5687 5.84832ZM63.2234 9.05401C62.4508 9.05401 61.8343 9.21018 61.374 9.52253C60.9137 9.81844 60.5767 10.3116 60.363 11.0021C60.1493 11.6761 60.0424 12.5967 60.0424 13.7639C60.0424 15.1612 60.1493 16.2627 60.363 17.0682C60.5767 17.8573 60.9137 18.4245 61.374 18.7697C61.8507 19.1149 62.4919 19.2875 63.2974 19.2875C64.0865 19.2875 64.7112 19.1396 65.1715 18.8437C65.6318 18.5313 65.9606 18.0299 66.1579 17.3395C66.3716 16.649 66.4784 15.7037 66.4784 14.5037C66.4784 13.1228 66.3716 12.0378 66.1579 11.2487C65.9442 10.4596 65.6071 9.90064 65.1468 9.57185C64.6865 9.22662 64.0454 9.05401 63.2234 9.05401ZM79.4605 5.84832C80.8743 5.84832 82.3045 6.12779 83.7512 6.68673L83.11 10.0404L82.5182 10.2623C81.8935 9.85132 81.2688 9.53075 80.6441 9.3006C80.0194 9.07045 79.4769 8.95537 79.0166 8.95537C78.4741 8.95537 78.0385 9.0951 77.7097 9.37457C77.3973 9.63761 77.2412 9.94995 77.2412 10.3116C77.2412 10.7226 77.4384 11.0761 77.833 11.372C78.244 11.6514 78.8851 11.9884 79.7564 12.383C80.677 12.8104 81.4168 13.205 81.9757 13.5666C82.5511 13.9118 83.0443 14.3804 83.4553 14.9722C83.8827 15.564 84.0964 16.2873 84.0964 17.1422C84.0964 18.0957 83.8334 18.9587 83.3073 19.7314C82.7977 20.504 82.0661 21.1205 81.1126 21.5808C80.1592 22.0247 79.0577 22.2466 77.8083 22.2466C76.1479 22.2466 74.504 21.9178 72.8765 21.2603L73.4437 17.6847L73.8629 17.4381C74.5533 18.0135 75.3013 18.4656 76.1068 18.7943C76.9288 19.1067 77.6357 19.2629 78.2275 19.2629C78.8522 19.2629 79.3207 19.1231 79.6331 18.8437C79.9619 18.5642 80.1263 18.2354 80.1263 17.8573C80.1263 17.4134 79.9208 17.0436 79.5098 16.7476C79.0988 16.4517 78.4577 16.1065 77.5864 15.712C76.6987 15.301 75.9671 14.9229 75.3917 14.5776C74.8328 14.216 74.3478 13.7392 73.9368 13.1474C73.5259 12.5556 73.3204 11.8323 73.3204 10.9774C73.3204 10.0075 73.5752 9.1362 74.0848 8.36355C74.6109 7.57446 75.3342 6.95798 76.2548 6.51412C77.1918 6.07026 78.2604 5.84832 79.4605 5.84832ZM91.3897 16.8956L91.5377 22H87.5182L87.7402 17.2901L87.5182 6.09492H91.6116L91.3897 16.8956ZM101.589 5.84832C103.003 5.84832 104.433 6.12779 105.88 6.68673L105.239 10.0404L104.647 10.2623C104.022 9.85132 103.397 9.53075 102.773 9.3006C102.148 9.07045 101.606 8.95537 101.145 8.95537C100.603 8.95537 100.167 9.0951 99.8383 9.37457C99.526 9.63761 99.3698 9.94995 99.3698 10.3116C99.3698 10.7226 99.5671 11.0761 99.9616 11.372C100.373 11.6514 101.014 11.9884 101.885 12.383C102.806 12.8104 103.545 13.205 104.104 13.5666C104.68 13.9118 105.173 14.3804 105.584 14.9722C106.011 15.564 106.225 16.2873 106.225 17.1422C106.225 18.0957 105.962 18.9587 105.436 19.7314C104.926 20.504 104.195 21.1205 103.241 21.5808C102.288 22.0247 101.186 22.2466 99.937 22.2466C98.2766 22.2466 96.6326 21.9178 95.0051 21.2603L95.5723 17.6847L95.9915 17.4381C96.682 18.0135 97.43 18.4656 98.2355 18.7943C99.0575 19.1067 99.7644 19.2629 100.356 19.2629C100.981 19.2629 101.449 19.1231 101.762 18.8437C102.091 18.5642 102.255 18.2354 102.255 17.8573C102.255 17.4134 102.049 17.0436 101.638 16.7476C101.227 16.4517 100.586 16.1065 99.715 15.712C98.8273 15.301 98.0958 14.9229 97.5204 14.5776C96.9614 14.216 96.4765 13.7392 96.0655 13.1474C95.6545 12.5556 95.449 11.8323 95.449 10.9774C95.449 10.0075 95.7038 9.1362 96.2134 8.36355C96.7395 7.57446 97.4628 6.95798 98.3834 6.51412C99.3205 6.07026 100.389 5.84832 101.589 5.84832ZM116.206 5.84832C118.475 5.84832 120.226 6.53056 121.459 7.89503C122.692 9.24306 123.308 11.1665 123.308 13.6653C123.308 16.3942 122.634 18.5149 121.286 20.0273C119.938 21.5233 118.039 22.2713 115.59 22.2713C113.338 22.2713 111.595 21.5808 110.362 20.1999C109.129 18.8026 108.513 16.8298 108.513 14.2817C108.513 11.5857 109.178 9.50609 110.51 8.04298C111.858 6.57988 113.757 5.84832 116.206 5.84832ZM115.861 9.05401C115.088 9.05401 114.472 9.21018 114.012 9.52253C113.551 9.81844 113.214 10.3116 113.001 11.0021C112.787 11.6761 112.68 12.5967 112.68 13.7639C112.68 15.1612 112.787 16.2627 113.001 17.0682C113.214 17.8573 113.551 18.4245 114.012 18.7697C114.488 19.1149 115.129 19.2875 115.935 19.2875C116.724 19.2875 117.349 19.1396 117.809 18.8437C118.269 18.5313 118.598 18.0299 118.795 17.3395C119.009 16.649 119.116 15.7037 119.116 14.5037C119.116 13.1228 119.009 12.0378 118.795 11.2487C118.582 10.4596 118.245 9.90064 117.784 9.57185C117.324 9.22662 116.683 9.05401 115.861 9.05401Z" fill="#6C35A7"/>
</svg>
