<svg width="32" height="32" viewBox="0 0 32 32" fill="none" xmlns="http://www.w3.org/2000/svg">
<path d="M25.7346 10.56V17.4267C25.7346 21.5333 23.3879 23.2933 19.8679 23.2933H8.14791C7.54791 23.2933 6.97458 23.24 6.44124 23.12C6.10791 23.0667 5.78792 22.9734 5.49459 22.8667C3.49459 22.12 2.28125 20.3867 2.28125 17.4267V10.56C2.28125 6.45331 4.62791 4.69336 8.14791 4.69336H19.8679C22.8546 4.69336 25.0013 5.96002 25.5746 8.85335C25.6679 9.38669 25.7346 9.93331 25.7346 10.56Z" stroke="#FFB049" stroke-width="2" stroke-miterlimit="10" stroke-linecap="round" stroke-linejoin="round"/>
<path d="M29.7347 14.5601V21.4268C29.7347 25.5335 27.3881 27.2935 23.8681 27.2935H12.1481C11.1614 27.2935 10.2681 27.1602 9.49475 26.8669C7.90808 26.2802 6.82807 25.0669 6.44141 23.1202C6.97474 23.2402 7.54807 23.2935 8.14807 23.2935H19.8681C23.3881 23.2935 25.7347 21.5335 25.7347 17.4268V10.5601C25.7347 9.93347 25.6814 9.37352 25.5747 8.85352C28.1081 9.38685 29.7347 11.1735 29.7347 14.5601Z" stroke="#FFB049" stroke-width="2" stroke-miterlimit="10" stroke-linecap="round" stroke-linejoin="round"/>
<path d="M14.0005 17.52C15.9445 17.52 17.5205 15.944 17.5205 14C17.5205 12.056 15.9445 10.48 14.0005 10.48C12.0564 10.48 10.4805 12.056 10.4805 14C10.4805 15.944 12.0564 17.52 14.0005 17.52Z" stroke="#FFB049" stroke-width="2" stroke-miterlimit="10" stroke-linecap="round" stroke-linejoin="round"/>
<path d="M6.375 11.0664V16.9331" stroke="#FFB049" stroke-width="2" stroke-miterlimit="10" stroke-linecap="round" stroke-linejoin="round"/>
<path d="M21.6289 11.0669V16.9336" stroke="#FFB049" stroke-width="2" stroke-miterlimit="10" stroke-linecap="round" stroke-linejoin="round"/>
</svg>
