<svg width="136" height="40" viewBox="0 0 136 40" fill="none" xmlns="http://www.w3.org/2000/svg">
<path d="M55.6308 18.9592H50.7647C50.5628 18.9592 50.377 18.8461 50.2854 18.6683L44.5252 7.55731H44.4256C44.4633 7.90469 44.4956 8.3221 44.5252 8.80952C44.5548 9.29694 44.5818 9.79244 44.6033 10.2987C44.6249 10.805 44.6356 11.2601 44.6356 11.6667V18.4233C44.6356 18.7222 44.3933 18.9645 44.0944 18.9645H41.2991C41.0002 18.9645 40.7578 18.7222 40.7578 18.4233V3.31325C40.7578 3.01434 41.0002 2.77197 41.2991 2.77197H46.1464C46.3483 2.77197 46.5314 2.88238 46.6257 3.06012L52.3643 14.0176H52.4316C52.4101 13.6622 52.3886 13.2528 52.3643 12.7843C52.3428 12.3157 52.3212 11.8418 52.3024 11.3624C52.2835 10.8831 52.2755 10.4576 52.2755 10.0887V3.31325C52.2755 3.01434 52.5178 2.77197 52.8168 2.77197H55.6335C55.9325 2.77197 56.1748 3.01434 56.1748 3.31325V18.4179C56.1748 18.7168 55.9325 18.9592 55.6335 18.9592H55.6308Z" fill="white"/>
<path d="M68.7378 18.9592H60.2092C59.9103 18.9592 59.668 18.7168 59.668 18.4179V3.31325C59.668 3.01434 59.9103 2.77197 60.2092 2.77197H68.7378C69.0367 2.77197 69.279 3.01434 69.279 3.31325V5.74227C69.279 6.04119 69.0367 6.28355 68.7378 6.28355H64.5799C64.281 6.28355 64.0386 6.52591 64.0386 6.82483V8.29247C64.0386 8.59139 64.281 8.83375 64.5799 8.83375H68.35C68.6489 8.83375 68.8912 9.07612 68.8912 9.37503V11.8041C68.8912 12.103 68.6489 12.3453 68.35 12.3453H64.5799C64.281 12.3453 64.0386 12.5877 64.0386 12.8866V14.8632C64.0386 15.1621 64.281 15.4045 64.5799 15.4045H68.7378C69.0367 15.4045 69.279 15.6469 69.279 15.9458V18.4313C69.279 18.7303 69.0367 18.9726 68.7378 18.9726V18.9592Z" fill="white"/>
<path d="M85.662 18.9592H81.935C81.7492 18.9592 81.5741 18.8622 81.4772 18.706L78.9405 14.6397C78.7277 14.3004 78.2322 14.3004 78.0222 14.6397L75.515 18.7006C75.4154 18.8595 75.2431 18.9565 75.0546 18.9565H71.4003C70.9721 18.9565 70.7136 18.4825 70.9479 18.1217L75.5878 10.9666C75.7036 10.7888 75.7036 10.5599 75.5878 10.3822L71.2575 3.60139C71.0286 3.24324 71.2872 2.77197 71.7126 2.77197H75.2673C75.4585 2.77197 75.6362 2.8743 75.7332 3.03857L78.0249 6.96217C78.2349 7.32302 78.7573 7.31764 78.962 6.95409L81.1568 3.04665C81.2537 2.877 81.4314 2.77197 81.628 2.77197H85.3335C85.7563 2.77197 86.0148 3.23785 85.7913 3.59601L81.3641 10.7161C81.251 10.8992 81.2564 11.1335 81.3803 11.3086L86.101 18.1082C86.3487 18.4664 86.0929 18.9565 85.6566 18.9565L85.662 18.9592Z" fill="white"/>
<path d="M40.8203 24.9053C40.8203 24.6064 41.0627 24.364 41.3616 24.364H44.7331C46.4485 24.364 47.7411 24.6172 48.6083 25.1207C49.4754 25.6243 49.9089 26.4887 49.9089 27.714C49.9089 28.2364 49.8147 28.705 49.6235 29.117C49.4323 29.529 49.1549 29.8711 48.7941 30.1403C48.4332 30.4096 47.9862 30.5954 47.4557 30.6951V30.7866C48.0104 30.8782 48.5005 31.0452 48.9314 31.2848C49.3623 31.5245 49.7016 31.8638 49.952 32.3055C50.2025 32.7471 50.3264 33.3099 50.3264 33.9993C50.3264 34.8233 50.1325 35.5235 49.7447 36.0971C49.3569 36.6734 48.8075 37.1096 48.0966 37.4086C47.3857 37.7075 46.5428 37.8556 45.5652 37.8556H41.3643C41.0654 37.8556 40.823 37.6132 40.823 37.3143V24.9053H40.8203ZM42.7108 29.4994C42.7108 29.7983 42.9531 30.0407 43.252 30.0407H45.0644C46.1523 30.0407 46.9063 29.863 47.3237 29.5048C47.7411 29.1493 47.9512 28.6296 47.9512 27.9456C47.9512 27.2616 47.7034 26.7284 47.2025 26.4187C46.7043 26.109 45.9126 25.9528 44.8328 25.9528H43.252C42.9531 25.9528 42.7108 26.1952 42.7108 26.4941V29.5021V29.4994ZM42.7108 32.1385V35.7174C42.7108 36.0163 42.9531 36.2587 43.252 36.2587H45.2852C46.3974 36.2587 47.1837 36.0406 47.6415 35.6043C48.0993 35.168 48.3282 34.581 48.3282 33.8431C48.3282 33.3772 48.2259 32.976 48.0185 32.6394C47.8111 32.3055 47.4799 32.0469 47.0167 31.8692C46.5563 31.6915 45.9342 31.6026 45.1532 31.6026H43.2493C42.9504 31.6026 42.7081 31.845 42.7081 32.1439L42.7108 32.1385Z" fill="white"/>
<path d="M64.9771 31.0908C64.9771 32.1303 64.8452 33.0755 64.5813 33.9291C64.3174 34.7801 63.9242 35.5126 63.4045 36.1239C62.8847 36.7352 62.2357 37.2091 61.4575 37.5404C60.6792 37.8716 59.7717 38.0385 58.7322 38.0385C57.6928 38.0385 56.7529 37.8716 55.9693 37.5404C55.1856 37.2091 54.534 36.7352 54.0169 36.1185C53.4999 35.5045 53.1148 34.7693 52.8589 33.913C52.6031 33.0566 52.4766 32.1114 52.4766 31.0719C52.4766 29.6878 52.7027 28.476 53.1605 27.4365C53.6156 26.397 54.3104 25.5891 55.2422 25.0155C56.1739 24.4393 57.3481 24.1538 58.7618 24.1538C60.1756 24.1538 61.2717 24.4393 62.1926 25.0129C63.1163 25.5838 63.8111 26.3889 64.277 27.4257C64.7455 28.4625 64.9771 29.6851 64.9771 31.0935V31.0908ZM54.4612 31.0908C54.4612 32.1868 54.612 33.132 54.919 33.9291C55.2233 34.7262 55.6919 35.3402 56.322 35.7738C56.9522 36.2074 57.7574 36.4255 58.7349 36.4255C59.7125 36.4255 60.5338 36.2074 61.1613 35.7738C61.7887 35.3402 62.2492 34.7262 62.5454 33.9291C62.8416 33.132 62.987 32.1868 62.987 31.0908C62.987 29.4293 62.6477 28.1313 61.9718 27.1941C61.2959 26.257 60.2241 25.7884 58.7618 25.7884C57.7762 25.7884 56.9684 26.0012 56.3355 26.4293C55.7027 26.8575 55.2314 27.4661 54.9244 28.2551C54.6174 29.0442 54.4639 29.9921 54.4639 31.0908H54.4612Z" fill="white"/>
<path d="M79.7623 31.0908C79.7623 32.1303 79.6303 33.0755 79.3664 33.9291C79.1025 34.7801 78.7093 35.5126 78.1896 36.1239C77.6699 36.7352 77.0209 37.2091 76.2426 37.5404C75.4644 37.8716 74.5569 38.0385 73.5174 38.0385C72.4779 38.0385 71.5381 37.8716 70.7544 37.5404C69.9708 37.2091 69.3191 36.7352 68.8021 36.1185C68.285 35.5045 67.8999 34.7693 67.6441 33.913C67.3883 33.0566 67.2617 32.1114 67.2617 31.0719C67.2617 29.6878 67.4879 28.476 67.9457 27.4365C68.4008 26.397 69.0956 25.5891 70.0273 25.0155C70.9591 24.4393 72.1332 24.1538 73.547 24.1538C74.9608 24.1538 76.0568 24.4393 76.9778 25.0129C77.9015 25.5838 78.5962 26.3889 79.0621 27.4257C79.5307 28.4625 79.7623 29.6851 79.7623 31.0935V31.0908ZM69.2464 31.0908C69.2464 32.1868 69.3972 33.132 69.7042 33.9291C70.0085 34.7262 70.477 35.3402 71.1072 35.7738C71.7373 36.2074 72.5425 36.4255 73.5201 36.4255C74.4976 36.4255 75.319 36.2074 75.9464 35.7738C76.5739 35.3402 77.0343 34.7262 77.3305 33.9291C77.6268 33.132 77.7722 32.1868 77.7722 31.0908C77.7722 29.4293 77.4329 28.1313 76.757 27.1941C76.081 26.257 75.0093 25.7884 73.547 25.7884C72.5614 25.7884 71.7535 26.0012 71.1207 26.4293C70.4878 26.8575 70.0166 27.4661 69.7096 28.2551C69.4026 29.0442 69.2491 29.9921 69.2491 31.0908H69.2464Z" fill="white"/>
<path d="M91.6706 37.8526H90.7846C90.6096 37.8526 90.448 37.7692 90.3457 37.6264L86.3197 31.9928C86.1366 31.7343 85.7704 31.6912 85.5307 31.8959L84.7848 32.5341C84.6636 32.6364 84.5962 32.7872 84.5962 32.9461V37.3141C84.5962 37.613 84.3539 37.8553 84.0549 37.8553H83.2444C82.9455 37.8553 82.7031 37.613 82.7031 37.3141V24.905C82.7031 24.6061 82.9455 24.3638 83.2444 24.3638H84.0549C84.3539 24.3638 84.5962 24.6061 84.5962 24.905V29.51C84.5962 30.0081 85.2102 30.2397 85.5414 29.8654C85.5441 29.8627 85.5468 29.8573 85.5522 29.8546C85.8754 29.4911 86.1958 29.1249 86.5163 28.7559L90.2218 24.5469C90.3241 24.4311 90.4722 24.3638 90.6284 24.3638H91.3528C91.8187 24.3638 92.0664 24.9131 91.7567 25.2605L87.6312 29.9193C87.4642 30.1078 87.4507 30.3852 87.5935 30.5871L92.1149 36.999C92.368 37.3571 92.1122 37.85 91.6733 37.85L91.6706 37.8526Z" fill="white"/>
<path d="M94.5273 37.3143V24.9053C94.5273 24.6064 94.7697 24.364 95.0686 24.364H95.8792C96.1781 24.364 96.4204 24.6064 96.4204 24.9053V37.3143C96.4204 37.6132 96.1781 37.8556 95.8792 37.8556H95.0686C94.7697 37.8556 94.5273 37.6132 94.5273 37.3143Z" fill="white"/>
<path d="M110.416 37.8529H108.983C108.797 37.8529 108.625 37.7587 108.528 37.6025L101.704 26.8011H101.632C101.65 27.1324 101.672 27.4986 101.696 27.8945C101.72 28.2903 101.742 28.7077 101.755 29.1386C101.772 29.5722 101.782 30.0111 101.788 30.4527V37.3116C101.788 37.6105 101.545 37.8529 101.246 37.8529H100.592C100.293 37.8529 100.051 37.6105 100.051 37.3116V24.9026C100.051 24.6037 100.293 24.3613 100.592 24.3613H102.006C102.192 24.3613 102.364 24.4556 102.461 24.6118L109.258 35.3566H109.323C109.309 35.0873 109.296 34.7507 109.277 34.3521C109.258 33.9535 109.242 33.5308 109.226 33.0837C109.209 32.6367 109.204 32.2139 109.204 31.8154V24.8999C109.204 24.601 109.446 24.3586 109.745 24.3586H110.419C110.717 24.3586 110.96 24.601 110.96 24.8999V37.3089C110.96 37.6078 110.717 37.8502 110.419 37.8502L110.416 37.8529Z" fill="white"/>
<path d="M120.704 30.6572H124.495C124.794 30.6572 125.037 30.8996 125.037 31.1985V36.9156C125.037 37.1498 124.886 37.3626 124.662 37.4299C124.073 37.6103 123.469 37.7531 122.85 37.8527C122.099 37.9766 121.256 38.0358 120.321 38.0358C118.932 38.0358 117.76 37.7584 116.807 37.2064C115.854 36.6517 115.129 35.8599 114.634 34.8258C114.138 33.7918 113.891 32.5503 113.891 31.0988C113.891 29.6473 114.165 28.484 114.712 27.4445C115.259 26.4051 116.056 25.5999 117.101 25.0263C118.145 24.4527 119.408 24.1672 120.884 24.1672C121.622 24.1672 122.33 24.2373 123.012 24.38C123.488 24.4796 123.938 24.6062 124.361 24.7597C124.652 24.8647 124.794 25.1959 124.67 25.4814L124.415 26.0792C124.301 26.3458 123.997 26.4724 123.725 26.3701C123.378 26.2381 123.006 26.1223 122.613 26.02C122.031 25.8692 121.431 25.7938 120.809 25.7938C119.775 25.7938 118.889 26.0119 118.148 26.4481C117.408 26.8844 116.839 27.5011 116.441 28.2928C116.045 29.0872 115.846 30.027 115.846 31.115C115.846 32.2029 116.013 33.1078 116.344 33.9022C116.675 34.6966 117.195 35.3133 117.903 35.7576C118.611 36.1992 119.522 36.4228 120.634 36.4228C121.194 36.4228 121.67 36.3904 122.069 36.3312C122.303 36.2962 122.527 36.2558 122.737 36.21C122.985 36.1562 123.162 35.9353 123.162 35.6822V32.8492C123.162 32.5503 122.92 32.308 122.621 32.308H120.704C120.405 32.308 120.162 32.0656 120.162 31.7667V31.1958C120.162 30.8969 120.405 30.6545 120.704 30.6545V30.6572Z" fill="white"/>
<path d="M135.993 34.2282C135.993 35.028 135.794 35.712 135.398 36.2803C135.002 36.8485 134.442 37.2847 133.723 37.5863C133.004 37.8879 132.148 38.0387 131.16 38.0387C130.661 38.0387 130.188 38.0118 129.735 37.9606C129.283 37.9095 128.863 37.8341 128.475 37.7344C128.224 37.6698 127.99 37.5971 127.769 37.5136C127.548 37.4301 127.422 37.2309 127.422 37.0073V36.353C127.422 35.984 127.783 35.7228 128.13 35.8413C128.459 35.9544 128.814 36.0594 129.194 36.1645C129.864 36.3449 130.556 36.4364 131.27 36.4364C131.892 36.4364 132.412 36.353 132.835 36.1833C133.255 36.0137 133.575 35.7767 133.788 35.467C134.003 35.16 134.111 34.7911 134.111 34.3602C134.111 33.9293 134.006 33.5685 133.799 33.2749C133.589 32.9841 133.26 32.7148 132.808 32.4671C132.355 32.222 131.763 31.9608 131.033 31.6834C130.521 31.4976 130.058 31.2876 129.641 31.0506C129.223 30.8136 128.86 30.5416 128.556 30.2346C128.251 29.9276 128.017 29.5668 127.85 29.1494C127.683 28.7347 127.602 28.2553 127.602 27.7141C127.602 26.9708 127.785 26.3326 128.152 25.8048C128.518 25.277 129.03 24.873 129.687 24.5929C130.344 24.3129 131.109 24.1729 131.976 24.1729C132.689 24.1729 133.354 24.2429 133.974 24.3856C134.41 24.4852 134.83 24.6118 135.237 24.7626C135.517 24.8676 135.66 25.1827 135.552 25.4628L135.334 26.031C135.229 26.3057 134.924 26.4457 134.65 26.346C134.289 26.2141 133.928 26.1037 133.562 26.0094C133.034 25.8748 132.485 25.8075 131.919 25.8075C131.397 25.8075 130.955 25.8856 130.594 26.0391C130.233 26.1925 129.961 26.4107 129.773 26.6934C129.584 26.9762 129.493 27.3128 129.493 27.6979C129.493 28.1341 129.59 28.4977 129.789 28.7858C129.986 29.074 130.295 29.3352 130.721 29.5695C131.146 29.8038 131.698 30.0515 132.382 30.3181C133.15 30.6143 133.804 30.9267 134.343 31.2579C134.881 31.5892 135.291 31.9904 135.573 32.4563C135.856 32.9249 135.999 33.5146 135.999 34.2282H135.993Z" fill="white"/>
<path d="M23.3513 39.7945H16.2635C16.172 39.7945 16.0912 39.746 16.0454 39.6679L14.1065 36.3126L8.11473 25.9367C7.98547 25.7132 7.64346 25.8048 7.64346 26.0633V39.5441C7.64346 39.6841 7.53034 39.7972 7.39031 39.7972H1.25312C1.11309 39.7972 1 39.6841 1 39.5441V1.26949C1 1.12946 1.11309 1.01636 1.25312 1.01636C1.34468 1.01636 1.42548 1.06483 1.47126 1.14293L7.64346 11.8312L9.17033 14.4756L12.5931 20.4054L14.1065 23.0257L17.1576 28.3119L18.9538 31.4222L21.9079 36.5388L23.5694 39.4175C23.6664 39.5872 23.5452 39.7972 23.3513 39.7972V39.7945Z" fill="white" stroke="white" stroke-width="0.269293" stroke-miterlimit="10"/>
<path d="M31.883 11.1929V10.2262C31.883 5.52163 28.3579 1.64112 23.8042 1.08368C23.4326 1.0379 23.0555 1.01636 22.6704 1.01636H5.04523C4.85134 1.01636 4.73014 1.22641 4.82709 1.39606L7.64661 6.28103L9.17348 8.92279L15.7631 20.3381L15.8035 20.4054L17.1634 22.7591L18.5314 25.1261C18.5772 25.2042 18.6607 25.2527 18.7495 25.2527H21.3832C22.2504 25.2527 23.0717 25.4493 23.8069 25.7967C25.7162 26.7042 27.0384 28.6512 27.0384 30.9079C27.0384 32.4698 26.4055 33.8835 25.3822 34.9069C25.1856 35.1034 24.9756 35.2839 24.7548 35.4481C24.6497 35.5262 24.6174 35.6663 24.6821 35.7794L26.5887 39.0809C26.6587 39.2021 26.8149 39.2452 26.9361 39.1751C27.6604 38.7443 28.3256 38.2245 28.9153 37.6321C30.7492 35.7982 31.883 33.2642 31.883 30.4662C31.883 28.5569 31.3551 26.7742 30.4369 25.25C29.0015 22.8668 26.6156 21.1218 23.8042 20.5455C23.508 20.4835 23.2037 20.4351 22.8994 20.4001C23.2037 20.392 23.5053 20.3704 23.8042 20.3354C28.3579 19.778 31.883 15.8948 31.883 11.1929ZM21.359 15.5582H15.1033C14.9633 15.5582 14.8502 15.4451 14.8502 15.305V6.11676C14.8502 5.97673 14.9633 5.86363 15.1033 5.86363H21.359C22.2503 5.86363 23.0852 6.1033 23.8042 6.52609C25.2422 7.36628 26.2062 8.92549 26.2062 10.7109C26.2062 12.0493 25.665 13.2611 24.7871 14.139C24.4935 14.4325 24.165 14.6857 23.8042 14.8957C23.0852 15.3185 22.2503 15.5582 21.359 15.5582Z" fill="white" stroke="white" stroke-width="0.269293" stroke-miterlimit="10"/>
</svg>
