<svg width="114" height="34" viewBox="0 0 114 34" fill="none" xmlns="http://www.w3.org/2000/svg">
<path d="M46.731 16.0191H42.6579C42.4888 16.0191 42.3333 15.9244 42.2567 15.7756L37.4352 6.47522H37.3518C37.3833 6.766 37.4104 7.11538 37.4352 7.52338C37.4599 7.93137 37.4825 8.34612 37.5005 8.76989C37.5186 9.19366 37.5276 9.5746 37.5276 9.91497V15.5705C37.5276 15.8207 37.3247 16.0236 37.0745 16.0236H34.7348C34.4845 16.0236 34.2817 15.8207 34.2817 15.5705V2.92277C34.2817 2.67256 34.4845 2.4697 34.7348 2.4697H38.7921C38.9612 2.4697 39.1144 2.56211 39.1933 2.71088L43.9968 11.8828H44.0532C44.0351 11.5853 44.0171 11.2426 43.9968 10.8504C43.9788 10.4582 43.9608 10.0615 43.945 9.66026C43.9292 9.25903 43.9224 8.90288 43.9224 8.59407V2.92277C43.9224 2.67256 44.1253 2.4697 44.3755 2.4697H46.7333C46.9835 2.4697 47.1864 2.67256 47.1864 2.92277V15.566C47.1864 15.8162 46.9835 16.0191 46.7333 16.0191H46.731Z" fill="#6C35A7"/>
<path d="M57.7017 16.0191H50.563C50.3128 16.0191 50.1099 15.8162 50.1099 15.566V2.92277C50.1099 2.67256 50.3128 2.4697 50.563 2.4697H57.7017C57.9519 2.4697 58.1548 2.67256 58.1548 2.92277V4.95596C58.1548 5.20617 57.9519 5.40903 57.7017 5.40903H54.2214C53.9712 5.40903 53.7683 5.6119 53.7683 5.86211V7.09059C53.7683 7.34079 53.9712 7.54366 54.2214 7.54366H57.3771C57.6273 7.54366 57.8302 7.74653 57.8302 7.99674V10.0299C57.8302 10.2801 57.6273 10.483 57.3771 10.483H54.2214C53.9712 10.483 53.7683 10.6859 53.7683 10.9361V12.5906C53.7683 12.8408 53.9712 13.0437 54.2214 13.0437H57.7017C57.9519 13.0437 58.1548 13.2465 58.1548 13.4967V15.5773C58.1548 15.8275 57.9519 16.0303 57.7017 16.0303V16.0191Z" fill="#6C35A7"/>
<path d="M71.8664 16.0191H68.7468C68.5913 16.0191 68.4447 15.9379 68.3636 15.8072L66.2402 12.4035C66.0622 12.1195 65.6474 12.1195 65.4716 12.4035L63.373 15.8027C63.2896 15.9357 63.1454 16.0168 62.9876 16.0168H59.9288C59.5704 16.0168 59.354 15.6201 59.5501 15.318L63.4339 9.3289C63.5308 9.18013 63.5308 8.98854 63.4339 8.83977L59.8093 3.16396C59.6177 2.86416 59.8341 2.4697 60.1902 2.4697H63.1656C63.3257 2.4697 63.4745 2.55535 63.5556 2.69285L65.4738 5.97707C65.6497 6.27911 66.0869 6.27461 66.2583 5.9703L68.0954 2.69961C68.1765 2.55761 68.3253 2.4697 68.4898 2.4697H71.5915C71.9453 2.4697 72.1617 2.85965 71.9746 3.15945L68.2689 9.11927C68.1742 9.27255 68.1787 9.46866 68.2824 9.61517L72.2339 15.3068C72.4412 15.6066 72.2271 16.0168 71.8619 16.0168L71.8664 16.0191Z" fill="#6C35A7"/>
<path d="M34.3336 20.9961C34.3336 20.7459 34.5364 20.543 34.7866 20.543H37.6088C39.0446 20.543 40.1266 20.7549 40.8524 21.1764C41.5782 21.5979 41.9411 22.3215 41.9411 23.3471C41.9411 23.7844 41.8622 24.1766 41.7022 24.5215C41.5421 24.8664 41.31 25.1527 41.0079 25.3781C40.7059 25.6035 40.3317 25.759 39.8876 25.8424V25.919C40.352 25.9957 40.7622 26.1354 41.1229 26.3361C41.4835 26.5367 41.7676 26.8207 41.9772 27.1904C42.1868 27.56 42.2905 28.0311 42.2905 28.6082C42.2905 29.2979 42.1282 29.884 41.8036 30.3641C41.479 30.8465 41.0192 31.2117 40.4241 31.4619C39.829 31.7121 39.1235 31.836 38.3053 31.836H34.7889C34.5387 31.836 34.3358 31.6332 34.3358 31.383V20.9961H34.3336ZM35.9159 24.8416C35.9159 25.0918 36.1188 25.2947 36.369 25.2947H37.886C38.7967 25.2947 39.4278 25.1459 39.7772 24.8461C40.1266 24.5486 40.3024 24.1135 40.3024 23.541C40.3024 22.9684 40.095 22.5221 39.6757 22.2629C39.2587 22.0037 38.5961 21.8729 37.6922 21.8729H36.369C36.1188 21.8729 35.9159 22.0758 35.9159 22.326V24.8438V24.8416ZM35.9159 27.0506V30.0463C35.9159 30.2965 36.1188 30.4994 36.369 30.4994H38.0708C39.0018 30.4994 39.66 30.3168 40.0432 29.9516C40.4264 29.5865 40.618 29.0951 40.618 28.4774C40.618 28.0875 40.5323 27.7516 40.3587 27.4699C40.1852 27.1904 39.9079 26.974 39.5202 26.8252C39.1348 26.6764 38.6141 26.602 37.9604 26.602H36.3668C36.1165 26.602 35.9137 26.8049 35.9137 27.0551L35.9159 27.0506Z" fill="#6C35A7"/>
<path d="M54.5572 26.1737C54.5572 27.0438 54.4468 27.835 54.2259 28.5495C54.005 29.2618 53.6759 29.875 53.2409 30.3866C52.8058 30.8983 52.2626 31.295 51.6111 31.5723C50.9597 31.8495 50.2001 31.9893 49.33 31.9893C48.4599 31.9893 47.6732 31.8495 47.0173 31.5723C46.3614 31.295 45.8159 30.8983 45.3831 30.3821C44.9503 29.8682 44.628 29.2528 44.4138 28.536C44.1997 27.8192 44.0938 27.028 44.0938 26.158C44.0938 24.9994 44.2831 23.985 44.6663 23.1149C45.0472 22.2448 45.6288 21.5686 46.4087 21.0885C47.1886 20.6061 48.1714 20.3672 49.3548 20.3672C50.5382 20.3672 51.4556 20.6061 52.2265 21.0862C52.9997 21.5641 53.5812 22.2381 53.9712 23.1059C54.3634 23.9737 54.5572 24.9971 54.5572 26.176V26.1737ZM45.755 26.1737C45.755 27.0912 45.8812 27.8823 46.1382 28.5495C46.3929 29.2168 46.7851 29.7307 47.3126 30.0936C47.84 30.4565 48.514 30.6391 49.3323 30.6391C50.1505 30.6391 50.838 30.4565 51.3632 30.0936C51.8884 29.7307 52.2738 29.2168 52.5218 28.5495C52.7697 27.8823 52.8915 27.0912 52.8915 26.1737C52.8915 24.783 52.6074 23.6965 52.0417 22.9121C51.4759 22.1276 50.5788 21.7354 49.3548 21.7354C48.5298 21.7354 47.8536 21.9135 47.3239 22.2719C46.7941 22.6303 46.3997 23.1397 46.1427 23.8002C45.8857 24.4606 45.7573 25.2541 45.7573 26.1737H45.755Z" fill="#6C35A7"/>
<path d="M66.9278 26.1737C66.9278 27.0438 66.8173 27.835 66.5964 28.5495C66.3755 29.2618 66.0464 29.875 65.6114 30.3866C65.1764 30.8983 64.6331 31.295 63.9817 31.5723C63.3303 31.8495 62.5706 31.9893 61.7006 31.9893C60.8305 31.9893 60.0438 31.8495 59.3878 31.5723C58.7319 31.295 58.1864 30.8983 57.7536 30.3821C57.3208 29.8682 56.9985 29.2528 56.7844 28.536C56.5702 27.8192 56.4643 27.028 56.4643 26.158C56.4643 24.9994 56.6536 23.985 57.0368 23.1149C57.4178 22.2448 57.9993 21.5686 58.7792 21.0885C59.5591 20.6061 60.5419 20.3672 61.7253 20.3672C62.9087 20.3672 63.8262 20.6061 64.5971 21.0862C65.3702 21.5641 65.9518 22.2381 66.3417 23.1059C66.7339 23.9737 66.9278 24.9971 66.9278 26.176V26.1737ZM58.1256 26.1737C58.1256 27.0912 58.2518 27.8823 58.5087 28.5495C58.7635 29.2168 59.1557 29.7307 59.6831 30.0936C60.2106 30.4565 60.8846 30.6391 61.7028 30.6391C62.521 30.6391 63.2085 30.4565 63.7337 30.0936C64.259 29.7307 64.6444 29.2168 64.8923 28.5495C65.1403 27.8823 65.262 27.0912 65.262 26.1737C65.262 24.783 64.978 23.6965 64.4122 22.9121C63.8464 22.1276 62.9493 21.7354 61.7253 21.7354C60.9003 21.7354 60.2241 21.9135 59.6944 22.2719C59.1647 22.6303 58.7702 23.1397 58.5133 23.8002C58.2563 24.4606 58.1278 25.2541 58.1278 26.1737H58.1256Z" fill="#6C35A7"/>
<path d="M76.8999 31.8338H76.1583C76.0118 31.8338 75.8765 31.7639 75.7909 31.6444L72.421 26.9289C72.2677 26.7125 71.9612 26.6764 71.7605 26.8477L71.1361 27.382C71.0347 27.4676 70.9783 27.5938 70.9783 27.7268V31.383C70.9783 31.6332 70.7755 31.836 70.5253 31.836H69.8468C69.5966 31.836 69.3937 31.6332 69.3937 31.383V20.9961C69.3937 20.7459 69.5966 20.543 69.8468 20.543H70.5253C70.7755 20.543 70.9783 20.7459 70.9783 20.9961V24.8506C70.9783 25.2676 71.4923 25.4615 71.7695 25.1481C71.7718 25.1459 71.7741 25.1414 71.7786 25.1391C72.0491 24.8348 72.3173 24.5283 72.5855 24.2195L75.6872 20.6963C75.7728 20.5994 75.8968 20.543 76.0275 20.543H76.6339C77.0238 20.543 77.2312 21.0029 76.972 21.2936L73.5187 25.1932C73.379 25.351 73.3677 25.5832 73.4872 25.7522L77.2718 31.1192C77.4837 31.419 77.2695 31.8315 76.9021 31.8315L76.8999 31.8338Z" fill="#6C35A7"/>
<path d="M79.2847 31.383V20.9961C79.2847 20.7459 79.4876 20.543 79.7378 20.543H80.4163C80.6665 20.543 80.8693 20.7459 80.8693 20.9961V31.383C80.8693 31.6332 80.6665 31.836 80.4163 31.836H79.7378C79.4876 31.836 79.2847 31.6332 79.2847 31.383Z" fill="#6C35A7"/>
<path d="M92.5861 31.8337H91.3869C91.2313 31.8337 91.0871 31.7549 91.0059 31.6241L85.2941 22.5829H85.2332C85.249 22.8602 85.267 23.1668 85.2873 23.4981C85.3076 23.8295 85.3256 24.1788 85.3369 24.5395C85.3504 24.9024 85.3594 25.2698 85.3639 25.6395V31.3807C85.3639 31.6309 85.1611 31.8337 84.9109 31.8337H84.3631C84.1129 31.8337 83.91 31.6309 83.91 31.3807V20.9938C83.91 20.7436 84.1129 20.5407 84.3631 20.5407H85.5465C85.702 20.5407 85.8463 20.6196 85.9275 20.7504L91.6168 29.7442H91.6709C91.6596 29.5188 91.6483 29.237 91.6326 28.9034C91.6168 28.5698 91.6033 28.2159 91.5897 27.8417C91.5762 27.4676 91.5717 27.1137 91.5717 26.7801V20.9916C91.5717 20.7414 91.7746 20.5385 92.0248 20.5385H92.5883C92.8385 20.5385 93.0414 20.7414 93.0414 20.9916V31.3784C93.0414 31.6286 92.8385 31.8315 92.5883 31.8315L92.5861 31.8337Z" fill="#6C35A7"/>
<path d="M101.203 25.8108H104.377C104.627 25.8108 104.83 26.0137 104.83 26.2639V31.0493C104.83 31.2454 104.704 31.4235 104.517 31.4799C104.023 31.6309 103.518 31.7503 103 31.8338C102.371 31.9374 101.666 31.987 100.883 31.987C99.7203 31.987 98.7397 31.7549 97.9418 31.2928C97.1438 30.8284 96.5375 30.1657 96.1227 29.3002C95.708 28.4346 95.5006 27.3954 95.5006 26.1805C95.5006 24.9655 95.7305 23.9918 96.1881 23.1217C96.6457 22.2516 97.3129 21.5776 98.1875 21.0975C99.0621 20.6174 100.119 20.3784 101.354 20.3784C101.972 20.3784 102.565 20.4371 103.135 20.5565C103.534 20.6399 103.911 20.7459 104.265 20.8743C104.508 20.9623 104.627 21.2395 104.524 21.4784L104.31 21.9789C104.215 22.202 103.96 22.308 103.733 22.2223C103.442 22.1118 103.131 22.0149 102.802 21.9293C102.315 21.803 101.812 21.7399 101.291 21.7399C100.426 21.7399 99.6842 21.9225 99.0643 22.2877C98.4445 22.6528 97.9688 23.169 97.6352 23.8317C97.3039 24.4967 97.1371 25.2834 97.1371 26.194C97.1371 27.1047 97.2768 27.862 97.5541 28.527C97.8313 29.192 98.2664 29.7081 98.8592 30.0801C99.452 30.4497 100.214 30.6368 101.145 30.6368C101.614 30.6368 102.013 30.6098 102.346 30.5602C102.542 30.5309 102.729 30.4971 102.905 30.4588C103.113 30.4137 103.261 30.2288 103.261 30.017V27.6456C103.261 27.3954 103.059 27.1926 102.808 27.1926H101.203C100.953 27.1926 100.75 26.9897 100.75 26.7395V26.2616C100.75 26.0114 100.953 25.8086 101.203 25.8086V25.8108Z" fill="#6C35A7"/>
<path d="M113.996 28.7997C113.996 29.4692 113.829 30.0417 113.497 30.5173C113.166 30.993 112.697 31.3581 112.095 31.6106C111.493 31.863 110.777 31.9893 109.949 31.9893C109.532 31.9893 109.136 31.9667 108.757 31.9239C108.378 31.8811 108.027 31.818 107.702 31.7346C107.492 31.6805 107.296 31.6196 107.112 31.5497C106.927 31.4798 106.821 31.313 106.821 31.1259V30.5782C106.821 30.2694 107.123 30.0507 107.414 30.1499C107.689 30.2446 107.986 30.3325 108.304 30.4204C108.865 30.5714 109.445 30.6481 110.042 30.6481C110.563 30.6481 110.998 30.5782 111.351 30.4362C111.703 30.2942 111.971 30.0958 112.149 29.8366C112.33 29.5796 112.42 29.2708 112.42 28.9102C112.42 28.5495 112.332 28.2475 112.158 28.0018C111.983 27.7583 111.708 27.5329 111.329 27.3255C110.95 27.1204 110.454 26.9018 109.843 26.6696C109.415 26.5141 109.027 26.3383 108.678 26.1399C108.329 25.9415 108.024 25.7139 107.77 25.4569C107.515 25.1999 107.319 24.8979 107.179 24.5485C107.039 24.2014 106.972 23.8001 106.972 23.3471C106.972 22.7249 107.125 22.1907 107.432 21.7489C107.738 21.3071 108.166 20.969 108.716 20.7346C109.266 20.5001 109.907 20.3829 110.632 20.3829C111.23 20.3829 111.787 20.4415 112.305 20.561C112.67 20.6444 113.022 20.7504 113.362 20.8766C113.597 20.9645 113.716 21.2282 113.626 21.4626L113.443 21.9383C113.355 22.1682 113.101 22.2854 112.871 22.202C112.569 22.0915 112.267 21.9991 111.96 21.9202C111.518 21.8075 111.058 21.7512 110.585 21.7512C110.148 21.7512 109.778 21.8165 109.476 21.945C109.174 22.0735 108.946 22.2561 108.789 22.4928C108.631 22.7294 108.554 23.0112 108.554 23.3335C108.554 23.6987 108.635 24.003 108.802 24.2442C108.967 24.4854 109.226 24.704 109.582 24.9001C109.938 25.0962 110.4 25.3036 110.973 25.5268C111.615 25.7747 112.163 26.0362 112.614 26.3135C113.065 26.5907 113.407 26.9266 113.644 27.3165C113.881 27.7087 114 28.2024 114 28.7997H113.996Z" fill="#6C35A7"/>
<path d="M19.709 33.459H13.7762C13.6996 33.459 13.6319 33.4184 13.5936 33.353L11.9707 30.5444L6.95533 21.8594C6.84713 21.6723 6.56086 21.7489 6.56086 21.9653V33.2493C6.56086 33.3665 6.46617 33.4612 6.34896 33.4612H1.21187C1.09466 33.4612 1 33.3665 1 33.2493V1.21188C1 1.09467 1.09466 1 1.21187 1C1.28851 1 1.35615 1.04057 1.39447 1.10594L6.56086 10.0524L7.83891 12.266L10.7039 17.2295L11.9707 19.4227L14.5246 23.8475L16.0281 26.451L18.5008 30.7338L19.8916 33.1434C19.9727 33.2854 19.8713 33.4612 19.709 33.4612V33.459Z" fill="#6C35A7" stroke="#6C35A7" stroke-width="0.225409" stroke-miterlimit="10"/>
<path d="M26.8477 9.51822V8.709C26.8477 4.7711 23.8971 1.52295 20.0854 1.05635C19.7744 1.01803 19.4588 1 19.1364 1H4.38339C4.2211 1 4.11965 1.17582 4.2008 1.31783L6.56086 5.40675L7.83891 7.61802L13.3547 17.1731L13.3885 17.2295L14.5268 19.1996L15.6719 21.1809C15.7102 21.2463 15.7801 21.2868 15.8545 21.2868H18.059C18.7848 21.2868 19.4723 21.4514 20.0877 21.7422C21.6858 22.5018 22.7926 24.1315 22.7926 26.0204C22.7926 27.3278 22.2629 28.5112 21.4063 29.3678C21.2418 29.5323 21.0659 29.6833 20.8811 29.8208C20.7932 29.8862 20.7662 30.0034 20.8203 30.0981L22.4161 32.8616C22.4748 32.9631 22.6055 32.9991 22.7069 32.9405C23.3133 32.5799 23.87 32.1448 24.3637 31.6489C25.8987 30.1139 26.8477 27.9928 26.8477 25.6508C26.8477 24.0526 26.4059 22.5604 25.6373 21.2846C24.4358 19.2897 22.4387 17.8291 20.0854 17.3467C19.8375 17.2948 19.5828 17.2543 19.328 17.225C19.5828 17.2182 19.8352 17.2002 20.0854 17.1709C23.8971 16.7043 26.8477 13.4539 26.8477 9.51822ZM18.0387 13.1721H12.8024C12.6852 13.1721 12.5906 13.0774 12.5906 12.9602V5.26925C12.5906 5.15204 12.6852 5.05737 12.8024 5.05737H18.0387C18.7848 5.05737 19.4836 5.25798 20.0854 5.61188C21.2891 6.31515 22.0961 7.62027 22.0961 9.11474C22.0961 10.235 21.643 11.2494 20.9081 11.9842C20.6624 12.2299 20.3875 12.4418 20.0854 12.6176C19.4836 12.9715 18.7848 13.1721 18.0387 13.1721Z" fill="#6C35A7" stroke="#6C35A7" stroke-width="0.225409" stroke-miterlimit="10"/>
</svg>
