<svg width="32" height="32" viewBox="0 0 32 32" fill="none" xmlns="http://www.w3.org/2000/svg">
<path d="M16.0248 3.87988C11.6115 3.87988 8.02483 7.46655 8.02483 11.8799V15.7332C8.02483 16.5466 7.67816 17.7865 7.26483 18.4799L5.7315 21.0266C4.78483 22.5999 5.43816 24.3466 7.1715 24.9332C12.9182 26.8532 19.1182 26.8532 24.8648 24.9332C26.4782 24.3999 27.1848 22.4932 26.3048 21.0266L24.7715 18.4799C24.3715 17.7865 24.0248 16.5466 24.0248 15.7332V11.8799C24.0248 7.47988 20.4248 3.87988 16.0248 3.87988Z" stroke="#FFB049" stroke-width="2" stroke-miterlimit="10" stroke-linecap="round"/>
<path d="M18.4919 4.26643C18.0786 4.14643 17.6519 4.05309 17.2119 3.99976C15.9319 3.83976 14.7053 3.93309 13.5586 4.26643C13.9453 3.27976 14.9053 2.58643 16.0253 2.58643C17.1453 2.58643 18.1053 3.27976 18.4919 4.26643Z" stroke="#FFB049" stroke-width="2" stroke-miterlimit="10" stroke-linecap="round" stroke-linejoin="round"/>
<path d="M20.0273 25.4136C20.0273 27.6136 18.2273 29.4136 16.0273 29.4136C14.934 29.4136 13.9207 28.9602 13.2007 28.2402C12.4807 27.5202 12.0273 26.5069 12.0273 25.4136" stroke="#FFB049" stroke-width="2" stroke-miterlimit="10"/>
</svg>
