<svg width="45" height="45" viewBox="0 0 45 45" fill="none" xmlns="http://www.w3.org/2000/svg">
<path d="M44.6042 22.44C44.6042 34.6498 34.7083 44.5457 22.4985 44.5457C17.4996 44.5457 12.8934 42.8876 9.19059 40.0911L14.6598 36.9327C16.9922 38.1948 19.6619 38.9125 22.4985 38.9125C31.4448 38.9125 38.7236 31.7852 38.968 22.8978C38.9711 22.7431 38.9742 22.5916 38.9742 22.4369C38.9742 21.8832 38.9463 21.3325 38.8937 20.7912C38.8628 20.4849 38.8257 20.1818 38.7762 19.8817C38.6679 19.1919 38.5194 18.5175 38.3307 17.8555C38.2689 17.6421 38.2039 17.4317 38.1328 17.2244L30.7271 21.4996L30.2971 22.4926L29.0412 25.4097L23.739 28.4196L11.9654 35.1076L6.82721 38.0247L0 41.907L1.23428 39.2806L1.71376 38.2567L5.22172 36.2305L10.1712 33.3722L13.2708 31.5811L25.3971 24.5806L27.4047 19.9188L32.7378 16.8409L36.9047 14.4342L41.783 11.6191C42.278 12.5008 42.7141 13.4164 43.0853 14.3661C43.1658 14.5703 43.2431 14.7744 43.3174 14.9817C43.5494 15.6282 43.7504 16.2902 43.9237 16.9646C43.9979 17.2492 44.0629 17.5338 44.1247 17.8246C44.2578 18.4525 44.366 19.0929 44.4434 19.7425C44.5516 20.6272 44.6073 21.5274 44.6073 22.44H44.6042Z" fill="white"/>
<path d="M0.116375 22.1057C0.116375 9.8959 10.0123 0 22.2221 0C27.221 0 31.8272 1.65808 35.53 4.45455L30.0608 7.61294C27.7284 6.35082 25.0587 5.63314 22.2221 5.63314C13.2758 5.63314 5.99699 12.7604 5.75261 21.6479C5.74952 21.8025 5.74642 21.9541 5.74642 22.1088C5.74642 22.6625 5.77427 23.2131 5.82685 23.7545C5.85779 24.0607 5.89491 24.3639 5.9444 24.664C6.05267 25.3538 6.20116 26.0282 6.38986 26.6902C6.45173 26.9036 6.51669 27.114 6.58784 27.3212L13.9935 23.0461L14.4235 22.0531L15.6794 19.136L20.9816 16.1261L32.7552 9.43807L37.8934 6.52096L44.7206 2.64489L43.4863 5.27121L43.0068 6.29514L39.4989 8.32134L34.5494 11.1797L31.4498 12.9708L19.3235 19.9712L17.3159 24.633L11.9828 27.711L7.81593 30.1177L2.93759 32.9327C2.44264 32.0511 2.00646 31.1354 1.63525 30.1857C1.55482 29.9816 1.47749 29.7774 1.40324 29.5701C1.17124 28.9236 0.970163 28.2616 0.79693 27.5872C0.722688 27.3027 0.657726 27.0181 0.595857 26.7273C0.462839 26.0993 0.354569 25.459 0.277233 24.8093C0.168963 23.9246 0.113281 23.0244 0.113281 22.1119L0.116375 22.1057Z" fill="white"/>
</svg>
