<svg width="28" height="28" viewBox="0 0 28 28" fill="none" xmlns="http://www.w3.org/2000/svg">
<path opacity="0.2" d="M24.5 14C24.5 16.0767 23.8842 18.1068 22.7304 19.8335C21.5767 21.5602 19.9368 22.906 18.0182 23.7007C16.0996 24.4955 13.9884 24.7034 11.9516 24.2982C9.91476 23.8931 8.04383 22.8931 6.57538 21.4246C5.10693 19.9562 4.1069 18.0852 3.70176 16.0484C3.29661 14.0116 3.50455 11.9004 4.29927 9.98182C5.09399 8.0632 6.4398 6.42332 8.16652 5.26957C9.89323 4.11581 11.9233 3.5 14 3.5C16.7848 3.5 19.4555 4.60625 21.4246 6.57538C23.3938 8.54451 24.5 11.2152 24.5 14Z" fill="#6C35A7"/>
<path d="M14 2.625C11.7502 2.625 9.551 3.29213 7.68039 4.54203C5.80978 5.79193 4.35182 7.56847 3.49088 9.64698C2.62993 11.7255 2.40467 14.0126 2.84357 16.2192C3.28248 18.4257 4.36584 20.4525 5.95667 22.0433C7.54749 23.6342 9.57432 24.7175 11.7809 25.1564C13.9874 25.5953 16.2745 25.3701 18.353 24.5091C20.4315 23.6482 22.2081 22.1902 23.458 20.3196C24.7079 18.449 25.375 16.2498 25.375 14C25.3715 10.9842 24.172 8.09297 22.0395 5.9605C19.907 3.82802 17.0158 2.62847 14 2.625ZM23.625 14C23.6258 14.8876 23.5032 15.7711 23.2608 16.625H19.0488C19.3172 14.8853 19.3172 13.1147 19.0488 11.375H23.2608C23.5032 12.2289 23.6258 13.1124 23.625 14ZM11.1563 18.375H16.8438C16.2835 20.211 15.3108 21.8945 14 23.2969C12.6899 21.894 11.7172 20.2107 11.1563 18.375ZM10.7297 16.625C10.4292 14.8879 10.4292 13.1121 10.7297 11.375H17.2791C17.5796 13.1121 17.5796 14.8879 17.2791 16.625H10.7297ZM4.37501 14C4.37423 13.1124 4.49681 12.2289 4.73922 11.375H8.95125C8.68285 13.1147 8.68285 14.8853 8.95125 16.625H4.73922C4.49681 15.7711 4.37423 14.8876 4.37501 14ZM16.8438 9.625H11.1563C11.7165 7.78903 12.6892 6.10549 14 4.70312C15.3101 6.10595 16.2828 7.78934 16.8438 9.625ZM22.5673 9.625H18.6714C18.1803 7.82351 17.3527 6.13123 16.2323 4.6375C17.5861 4.9627 18.8535 5.57679 19.9477 6.43765C21.0419 7.29852 21.9371 8.38582 22.5717 9.625H22.5673ZM11.7677 4.6375C10.6473 6.13123 9.81968 7.82351 9.3286 9.625H5.42829C6.06296 8.38582 6.95808 7.29852 8.05229 6.43765C9.1465 5.57679 10.4139 4.9627 11.7677 4.6375ZM5.42829 18.375H9.3286C9.81968 20.1765 10.6473 21.8688 11.7677 23.3625C10.4139 23.0373 9.1465 22.4232 8.05229 21.5623C6.95808 20.7015 6.06296 19.6142 5.42829 18.375ZM16.2323 23.3625C17.3527 21.8688 18.1803 20.1765 18.6714 18.375H22.5717C21.9371 19.6142 21.0419 20.7015 19.9477 21.5623C18.8535 22.4232 17.5861 23.0373 16.2323 23.3625Z" fill="#6C35A7"/>
</svg>
