<svg width="28" height="28" viewBox="0 0 28 28" fill="none" xmlns="http://www.w3.org/2000/svg">
<path d="M14 4.66663C12.1435 4.66663 10.363 5.40412 9.05025 6.71688C7.7375 8.02963 7 9.81011 7 11.6666V21H21V11.6666C21 9.81011 20.2625 8.02963 18.9497 6.71688C17.637 5.40412 15.8565 4.66663 14 4.66663Z" fill="black" fill-opacity="0.34"/>
<path d="M14.0003 4.66665C12.1438 4.66665 10.3633 5.40414 9.05058 6.7169C7.73782 8.02965 7.00033 9.81013 7.00033 11.6666V21H21.0003V11.6666C21.0003 9.81013 20.2628 8.02965 18.9501 6.7169C17.6373 5.40414 15.8568 4.66665 14.0003 4.66665ZM14.0003 4.66665C14.3097 4.66665 14.6065 4.54373 14.8253 4.32494C15.0441 4.10614 15.167 3.8094 15.167 3.49998C15.167 3.19056 15.0441 2.89381 14.8253 2.67502C14.6065 2.45623 14.3097 2.33331 14.0003 2.33331C13.6909 2.33331 13.3942 2.45623 13.1754 2.67502C12.9566 2.89381 12.8337 3.19056 12.8337 3.49998C12.8337 3.8094 12.9566 4.10614 13.1754 4.32494C13.3942 4.54373 13.6909 4.66665 14.0003 4.66665ZM23.3337 21H4.66699M16.3337 23.3333C16.3337 23.9521 16.0878 24.5456 15.6502 24.9832C15.2127 25.4208 14.6192 25.6666 14.0003 25.6666C13.3815 25.6666 12.788 25.4208 12.3504 24.9832C11.9128 24.5456 11.667 23.9521 11.667 23.3333" stroke="#807E7E" stroke-width="1.5" stroke-linecap="round" stroke-linejoin="round"/>
</svg>
