<svg width="20" height="20" viewBox="0 0 20 20" fill="none" xmlns="http://www.w3.org/2000/svg">
<path opacity="0.5" d="M1.66699 9.99998C1.66699 11.3666 2.02116 11.8258 2.72949 12.7466C4.14366 14.5833 6.51533 16.6666 10.0003 16.6666C13.4853 16.6666 15.857 14.5833 17.2712 12.7466C17.9795 11.8266 18.3337 11.3658 18.3337 9.99998C18.3337 8.63331 17.9795 8.17415 17.2712 7.25331C15.857 5.41665 13.4853 3.33331 10.0003 3.33331C6.51533 3.33331 4.14366 5.41665 2.72949 7.25331C2.02116 8.17498 1.66699 8.63415 1.66699 9.99998Z" fill="#6C35A7"/>
<path fill-rule="evenodd" clip-rule="evenodd" d="M6.875 10C6.875 9.1712 7.20424 8.37634 7.79029 7.79029C8.37634 7.20424 9.1712 6.875 10 6.875C10.8288 6.875 11.6237 7.20424 12.2097 7.79029C12.7958 8.37634 13.125 9.1712 13.125 10C13.125 10.8288 12.7958 11.6237 12.2097 12.2097C11.6237 12.7958 10.8288 13.125 10 13.125C9.1712 13.125 8.37634 12.7958 7.79029 12.2097C7.20424 11.6237 6.875 10.8288 6.875 10ZM8.125 10C8.125 9.50272 8.32254 9.02581 8.67417 8.67417C9.02581 8.32254 9.50272 8.125 10 8.125C10.4973 8.125 10.9742 8.32254 11.3258 8.67417C11.6775 9.02581 11.875 9.50272 11.875 10C11.875 10.4973 11.6775 10.9742 11.3258 11.3258C10.9742 11.6775 10.4973 11.875 10 11.875C9.50272 11.875 9.02581 11.6775 8.67417 11.3258C8.32254 10.9742 8.125 10.4973 8.125 10Z" fill="#6C35A7"/>
</svg>
