<svg width="68" height="47" viewBox="0 0 68 47" fill="none" xmlns="http://www.w3.org/2000/svg">
<path fill-rule="evenodd" clip-rule="evenodd" d="M13.0305 10.9854C14.1139 10.7236 15.2214 10.5918 16.3323 10.5924C25.1298 10.5924 32.2595 18.7404 32.2595 28.7874C32.2595 38.8374 25.1298 46.9854 16.3323 46.9854C7.53484 46.9854 0.402344 38.8404 0.402344 28.7874C0.402344 28.4934 0.407969 28.1964 0.422031 27.9024H0.402344C0.402344 12.7374 11.2023 0.398438 24.4773 0.398438V6.50644C20.1714 6.50644 16.2002 8.18044 13.0305 10.9854ZM48.6761 10.9854C49.7392 10.7274 50.8417 10.5924 51.9723 10.5924C60.7698 10.5924 67.9023 18.7404 67.9023 28.7874C67.9023 38.8374 60.7698 46.9854 51.9723 46.9854C43.1748 46.9854 36.0452 38.8404 36.0452 28.7874C36.0452 28.4934 36.0508 28.1964 36.0648 27.9024H36.0452C36.0452 12.7374 46.8452 0.398438 60.1202 0.398438V6.50644C55.8114 6.50644 51.8458 8.18044 48.6761 10.9854Z" fill="#FFB049"/>
</svg>
